<?xml version="1.0" encoding="UTF-8" standalone="no"?>
<!DOCTYPE svg PUBLIC "-//W3C//DTD SVG 1.1//EN"
 "http://www.w3.org/Graphics/SVG/1.1/DTD/svg11.dtd">
<!-- Generated by graphviz version 2.38.0 (20140413.2041)
 -->
<!-- Title: %3 Pages: 1 -->
<svg width="275pt" height="275pt"
 viewBox="0.00 0.00 275.00 275.00" xmlns="http://www.w3.org/2000/svg" xmlns:xlink="http://www.w3.org/1999/xlink">
<g id="graph0" class="graph" transform="scale(1 1) rotate(0) translate(4 271)">
<title>%3</title>
<polygon fill="white" stroke="none" points="-4,4 -4,-271 271,-271 271,4 -4,4"/>
<g id="clust2" class="cluster"><title>cluster_1</title>
<polygon fill="none" stroke="white" points="101.714,-63 101.714,-204 165.286,-204 165.286,-63 101.714,-63"/>
<text text-anchor="middle" x="133.5" y="-191.9" font-family="Times,serif" font-size="9.00">hidden</text>
</g>
<g id="clust3" class="cluster"><title>cluster_2</title>
<polygon fill="none" stroke="white" points="197.071,-63 197.071,-204 259.054,-204 259.054,-63 197.071,-63"/>
<text text-anchor="middle" x="228.062" y="-191.9" font-family="Times,serif" font-size="9.00">output</text>
</g>
<g id="clust1" class="cluster"><title>cluster_0</title>
<polygon fill="none" stroke="white" points="12.7143,-8 12.7143,-259 66.75,-259 66.75,-8 12.7143,-8"/>
<text text-anchor="middle" x="39.7321" y="-246.9" font-family="Times,serif" font-size="9.00">input</text>
</g>
<!-- 00 -->
<g id="node1" class="node"><title>00</title>
<ellipse fill="none" stroke="black" stroke-width="0.5" cx="40.0536" cy="-135" rx="9" ry="9"/>
</g>
<!-- 10 -->
<g id="node11" class="node"><title>10</title>
<ellipse fill="none" stroke="black" stroke-width="0.5" cx="133.054" cy="-80" rx="9" ry="9"/>
</g>
<!-- 00&#45;&gt;10 -->
<g id="edge1" class="edge"><title>00&#45;&gt;10</title>
<path fill="none" stroke="black" stroke-width="0.5" d="M48.1942,-130.684C64.5408,-120.804 104.667,-96.5523 122.842,-85.5677"/>
<polygon fill="black" stroke="black" stroke-width="0.5" points="123.597,-85.9294 124.946,-84.2957 122.872,-84.7312 123.597,-85.9294"/>
</g>
<!-- 11 -->
<g id="node12" class="node"><title>11</title>
<ellipse fill="none" stroke="black" stroke-width="0.5" cx="133.054" cy="-168" rx="9" ry="9"/>
</g>
<!-- 00&#45;&gt;11 -->
<g id="edge2" class="edge"><title>00&#45;&gt;11</title>
<path fill="none" stroke="black" stroke-width="0.5" d="M48.8122,-137.814C65.3331,-143.805 103.963,-157.813 122.195,-164.425"/>
<polygon fill="black" stroke="black" stroke-width="0.5" points="122.196,-165.17 124.315,-165.194 122.673,-163.854 122.196,-165.17"/>
</g>
<!-- 12 -->
<g id="node13" class="node"><title>12</title>
<ellipse fill="none" stroke="black" stroke-width="0.5" cx="133.054" cy="-146" rx="9" ry="9"/>
</g>
<!-- 00&#45;&gt;12 -->
<g id="edge3" class="edge"><title>00&#45;&gt;12</title>
<path fill="none" stroke="black" stroke-width="0.5" d="M49.1292,-135.976C65.6817,-137.977 103.436,-142.541 121.733,-144.752"/>
<polygon fill="black" stroke="black" stroke-width="0.5" points="121.796,-145.465 123.865,-145.01 121.964,-144.075 121.796,-145.465"/>
</g>
<!-- 13 -->
<g id="node14" class="node"><title>13</title>
<ellipse fill="none" stroke="black" stroke-width="0.5" cx="133.054" cy="-124" rx="9" ry="9"/>
</g>
<!-- 00&#45;&gt;13 -->
<g id="edge4" class="edge"><title>00&#45;&gt;13</title>
<path fill="none" stroke="black" stroke-width="0.5" d="M49.1292,-134.024C65.6817,-132.023 103.436,-127.459 121.733,-125.248"/>
<polygon fill="black" stroke="black" stroke-width="0.5" points="121.964,-125.925 123.865,-124.99 121.796,-124.535 121.964,-125.925"/>
</g>
<!-- 14 -->
<g id="node15" class="node"><title>14</title>
<ellipse fill="none" stroke="black" stroke-width="0.5" cx="133.054" cy="-102" rx="9" ry="9"/>
</g>
<!-- 00&#45;&gt;14 -->
<g id="edge5" class="edge"><title>00&#45;&gt;14</title>
<path fill="none" stroke="black" stroke-width="0.5" d="M48.8122,-132.186C65.3331,-126.195 103.963,-112.187 122.195,-105.575"/>
<polygon fill="black" stroke="black" stroke-width="0.5" points="122.673,-106.146 124.315,-104.806 122.196,-104.83 122.673,-106.146"/>
</g>
<!-- 01 -->
<g id="node2" class="node"><title>01</title>
<ellipse fill="none" stroke="black" stroke-width="0.5" cx="40.0536" cy="-113" rx="9" ry="9"/>
</g>
<!-- 01&#45;&gt;10 -->
<g id="edge6" class="edge"><title>01&#45;&gt;10</title>
<path fill="none" stroke="black" stroke-width="0.5" d="M48.8122,-110.186C65.3331,-104.195 103.963,-90.1866 122.195,-83.575"/>
<polygon fill="black" stroke="black" stroke-width="0.5" points="122.673,-84.1464 124.315,-82.8064 122.196,-82.8303 122.673,-84.1464"/>
</g>
<!-- 01&#45;&gt;11 -->
<g id="edge7" class="edge"><title>01&#45;&gt;11</title>
<path fill="none" stroke="black" stroke-width="0.5" d="M48.1942,-117.316C64.5408,-127.196 104.667,-151.448 122.842,-162.432"/>
<polygon fill="black" stroke="black" stroke-width="0.5" points="122.872,-163.269 124.946,-163.704 123.597,-162.071 122.872,-163.269"/>
</g>
<!-- 01&#45;&gt;12 -->
<g id="edge8" class="edge"><title>01&#45;&gt;12</title>
<path fill="none" stroke="black" stroke-width="0.5" d="M48.8122,-115.814C65.3331,-121.805 103.963,-135.813 122.195,-142.425"/>
<polygon fill="black" stroke="black" stroke-width="0.5" points="122.196,-143.17 124.315,-143.194 122.673,-141.854 122.196,-143.17"/>
</g>
<!-- 01&#45;&gt;13 -->
<g id="edge9" class="edge"><title>01&#45;&gt;13</title>
<path fill="none" stroke="black" stroke-width="0.5" d="M49.1292,-113.976C65.6817,-115.977 103.436,-120.541 121.733,-122.752"/>
<polygon fill="black" stroke="black" stroke-width="0.5" points="121.796,-123.465 123.865,-123.01 121.964,-122.075 121.796,-123.465"/>
</g>
<!-- 01&#45;&gt;14 -->
<g id="edge10" class="edge"><title>01&#45;&gt;14</title>
<path fill="none" stroke="black" stroke-width="0.5" d="M49.1292,-112.024C65.6817,-110.023 103.436,-105.459 121.733,-103.248"/>
<polygon fill="black" stroke="black" stroke-width="0.5" points="121.964,-103.925 123.865,-102.99 121.796,-102.535 121.964,-103.925"/>
</g>
<!-- 02 -->
<g id="node3" class="node"><title>02</title>
<ellipse fill="none" stroke="black" stroke-width="0.5" cx="40.0536" cy="-91" rx="9" ry="9"/>
</g>
<!-- 02&#45;&gt;10 -->
<g id="edge11" class="edge"><title>02&#45;&gt;10</title>
<path fill="none" stroke="black" stroke-width="0.5" d="M49.1292,-90.0238C65.6817,-88.023 103.436,-83.4593 121.733,-81.2475"/>
<polygon fill="black" stroke="black" stroke-width="0.5" points="121.964,-81.9248 123.865,-80.9898 121.796,-80.535 121.964,-81.9248"/>
</g>
<!-- 02&#45;&gt;11 -->
<g id="edge12" class="edge"><title>02&#45;&gt;11</title>
<path fill="none" stroke="black" stroke-width="0.5" d="M47.5981,-96.5377C63.8636,-110.301 106.092,-146.033 123.921,-161.118"/>
<polygon fill="black" stroke="black" stroke-width="0.5" points="123.589,-161.755 125.568,-162.513 124.494,-160.686 123.589,-161.755"/>
</g>
<!-- 02&#45;&gt;12 -->
<g id="edge13" class="edge"><title>02&#45;&gt;12</title>
<path fill="none" stroke="black" stroke-width="0.5" d="M48.1942,-95.3158C64.5408,-105.196 104.667,-129.448 122.842,-140.432"/>
<polygon fill="black" stroke="black" stroke-width="0.5" points="122.872,-141.269 124.946,-141.704 123.597,-140.071 122.872,-141.269"/>
</g>
<!-- 02&#45;&gt;13 -->
<g id="edge14" class="edge"><title>02&#45;&gt;13</title>
<path fill="none" stroke="black" stroke-width="0.5" d="M48.8122,-93.8136C65.3331,-99.8046 103.963,-113.813 122.195,-120.425"/>
<polygon fill="black" stroke="black" stroke-width="0.5" points="122.196,-121.17 124.315,-121.194 122.673,-119.854 122.196,-121.17"/>
</g>
<!-- 02&#45;&gt;14 -->
<g id="edge15" class="edge"><title>02&#45;&gt;14</title>
<path fill="none" stroke="black" stroke-width="0.5" d="M49.1292,-91.9762C65.6817,-93.977 103.436,-98.5407 121.733,-100.752"/>
<polygon fill="black" stroke="black" stroke-width="0.5" points="121.796,-101.465 123.865,-101.01 121.964,-100.075 121.796,-101.465"/>
</g>
<!-- 03 -->
<g id="node4" class="node"><title>03</title>
<ellipse fill="none" stroke="black" stroke-width="0.5" cx="40.0536" cy="-69" rx="9" ry="9"/>
</g>
<!-- 03&#45;&gt;10 -->
<g id="edge16" class="edge"><title>03&#45;&gt;10</title>
<path fill="none" stroke="black" stroke-width="0.5" d="M49.1292,-69.9762C65.6817,-71.977 103.436,-76.5407 121.733,-78.7525"/>
<polygon fill="black" stroke="black" stroke-width="0.5" points="121.796,-79.465 123.865,-79.0102 121.964,-78.0752 121.796,-79.465"/>
</g>
<!-- 03&#45;&gt;11 -->
<g id="edge17" class="edge"><title>03&#45;&gt;11</title>
<path fill="none" stroke="black" stroke-width="0.5" d="M46.746,-75.1929C62.5777,-92.4164 107.12,-140.874 124.744,-160.047"/>
<polygon fill="black" stroke="black" stroke-width="0.5" points="124.494,-160.811 126.363,-161.809 125.525,-159.863 124.494,-160.811"/>
</g>
<!-- 03&#45;&gt;12 -->
<g id="edge18" class="edge"><title>03&#45;&gt;12</title>
<path fill="none" stroke="black" stroke-width="0.5" d="M47.5981,-74.5377C63.8636,-88.3008 106.092,-124.033 123.921,-139.118"/>
<polygon fill="black" stroke="black" stroke-width="0.5" points="123.589,-139.755 125.568,-140.513 124.494,-138.686 123.589,-139.755"/>
</g>
<!-- 03&#45;&gt;13 -->
<g id="edge19" class="edge"><title>03&#45;&gt;13</title>
<path fill="none" stroke="black" stroke-width="0.5" d="M48.1942,-73.3158C64.5408,-83.1956 104.667,-107.448 122.842,-118.432"/>
<polygon fill="black" stroke="black" stroke-width="0.5" points="122.872,-119.269 124.946,-119.704 123.597,-118.071 122.872,-119.269"/>
</g>
<!-- 03&#45;&gt;14 -->
<g id="edge20" class="edge"><title>03&#45;&gt;14</title>
<path fill="none" stroke="black" stroke-width="0.5" d="M48.8122,-71.8136C65.3331,-77.8046 103.963,-91.8134 122.195,-98.425"/>
<polygon fill="black" stroke="black" stroke-width="0.5" points="122.196,-99.1697 124.315,-99.1936 122.673,-97.8536 122.196,-99.1697"/>
</g>
<!-- 04 -->
<g id="node5" class="node"><title>04</title>
<ellipse fill="none" stroke="black" stroke-width="0.5" cx="40.0536" cy="-47" rx="9" ry="9"/>
</g>
<!-- 04&#45;&gt;10 -->
<g id="edge21" class="edge"><title>04&#45;&gt;10</title>
<path fill="none" stroke="black" stroke-width="0.5" d="M48.8122,-49.8136C65.3331,-55.8046 103.963,-69.8134 122.195,-76.425"/>
<polygon fill="black" stroke="black" stroke-width="0.5" points="122.196,-77.1697 124.315,-77.1936 122.673,-75.8536 122.196,-77.1697"/>
</g>
<!-- 04&#45;&gt;11 -->
<g id="edge22" class="edge"><title>04&#45;&gt;11</title>
<path fill="none" stroke="black" stroke-width="0.5" d="M46.2069,-53.8522C61.7859,-74.5672 108.373,-136.513 125.577,-159.388"/>
<polygon fill="black" stroke="black" stroke-width="0.5" points="125.195,-160.045 126.957,-161.223 126.314,-159.204 125.195,-160.045"/>
</g>
<!-- 04&#45;&gt;12 -->
<g id="edge23" class="edge"><title>04&#45;&gt;12</title>
<path fill="none" stroke="black" stroke-width="0.5" d="M46.746,-53.1929C62.5777,-70.4164 107.12,-118.874 124.744,-138.047"/>
<polygon fill="black" stroke="black" stroke-width="0.5" points="124.494,-138.811 126.363,-139.809 125.525,-137.863 124.494,-138.811"/>
</g>
<!-- 04&#45;&gt;13 -->
<g id="edge24" class="edge"><title>04&#45;&gt;13</title>
<path fill="none" stroke="black" stroke-width="0.5" d="M47.5981,-52.5377C63.8636,-66.3008 106.092,-102.033 123.921,-117.118"/>
<polygon fill="black" stroke="black" stroke-width="0.5" points="123.589,-117.755 125.568,-118.513 124.494,-116.686 123.589,-117.755"/>
</g>
<!-- 04&#45;&gt;14 -->
<g id="edge25" class="edge"><title>04&#45;&gt;14</title>
<path fill="none" stroke="black" stroke-width="0.5" d="M48.1942,-51.3158C64.5408,-61.1956 104.667,-85.4477 122.842,-96.4323"/>
<polygon fill="black" stroke="black" stroke-width="0.5" points="122.872,-97.2688 124.946,-97.7043 123.597,-96.0706 122.872,-97.2688"/>
</g>
<!-- 05 -->
<g id="node6" class="node"><title>05</title>
<ellipse fill="none" stroke="black" stroke-width="0.5" cx="40.0536" cy="-25" rx="9" ry="9"/>
</g>
<!-- 05&#45;&gt;10 -->
<g id="edge26" class="edge"><title>05&#45;&gt;10</title>
<path fill="none" stroke="black" stroke-width="0.5" d="M48.1942,-29.3158C64.5408,-39.1956 104.667,-63.4477 122.842,-74.4323"/>
<polygon fill="black" stroke="black" stroke-width="0.5" points="122.872,-75.2688 124.946,-75.7043 123.597,-74.0706 122.872,-75.2688"/>
</g>
<!-- 05&#45;&gt;11 -->
<g id="edge27" class="edge"><title>05&#45;&gt;11</title>
<path fill="none" stroke="black" stroke-width="0.5" d="M45.6914,-32.288C60.9005,-56.188 109.254,-132.173 126.154,-158.73"/>
<polygon fill="black" stroke="black" stroke-width="0.5" points="125.652,-159.244 127.316,-160.555 126.833,-158.492 125.652,-159.244"/>
</g>
<!-- 05&#45;&gt;12 -->
<g id="edge28" class="edge"><title>05&#45;&gt;12</title>
<path fill="none" stroke="black" stroke-width="0.5" d="M46.2069,-31.8522C61.7859,-52.5672 108.373,-114.513 125.577,-137.388"/>
<polygon fill="black" stroke="black" stroke-width="0.5" points="125.195,-138.045 126.957,-139.223 126.314,-137.204 125.195,-138.045"/>
</g>
<!-- 05&#45;&gt;13 -->
<g id="edge29" class="edge"><title>05&#45;&gt;13</title>
<path fill="none" stroke="black" stroke-width="0.5" d="M46.746,-31.1929C62.5777,-48.4164 107.12,-96.8745 124.744,-116.047"/>
<polygon fill="black" stroke="black" stroke-width="0.5" points="124.494,-116.811 126.363,-117.809 125.525,-115.863 124.494,-116.811"/>
</g>
<!-- 05&#45;&gt;14 -->
<g id="edge30" class="edge"><title>05&#45;&gt;14</title>
<path fill="none" stroke="black" stroke-width="0.5" d="M47.5981,-30.5377C63.8636,-44.3008 106.092,-80.0326 123.921,-95.1185"/>
<polygon fill="black" stroke="black" stroke-width="0.5" points="123.589,-95.755 125.568,-96.5125 124.494,-94.6862 123.589,-95.755"/>
</g>
<!-- 06 -->
<g id="node7" class="node"><title>06</title>
<ellipse fill="none" stroke="black" stroke-width="0.5" cx="40.0536" cy="-223" rx="9" ry="9"/>
</g>
<!-- 06&#45;&gt;10 -->
<g id="edge31" class="edge"><title>06&#45;&gt;10</title>
<path fill="none" stroke="black" stroke-width="0.5" d="M45.6914,-215.712C60.9005,-191.812 109.254,-115.827 126.154,-89.2701"/>
<polygon fill="black" stroke="black" stroke-width="0.5" points="126.833,-89.508 127.316,-87.4448 125.652,-88.7563 126.833,-89.508"/>
</g>
<!-- 06&#45;&gt;11 -->
<g id="edge32" class="edge"><title>06&#45;&gt;11</title>
<path fill="none" stroke="black" stroke-width="0.5" d="M48.1942,-218.684C64.5408,-208.804 104.667,-184.552 122.842,-173.568"/>
<polygon fill="black" stroke="black" stroke-width="0.5" points="123.597,-173.929 124.946,-172.296 122.872,-172.731 123.597,-173.929"/>
</g>
<!-- 06&#45;&gt;12 -->
<g id="edge33" class="edge"><title>06&#45;&gt;12</title>
<path fill="none" stroke="black" stroke-width="0.5" d="M47.5981,-217.462C63.8636,-203.699 106.092,-167.967 123.921,-152.882"/>
<polygon fill="black" stroke="black" stroke-width="0.5" points="124.494,-153.314 125.568,-151.487 123.589,-152.245 124.494,-153.314"/>
</g>
<!-- 06&#45;&gt;13 -->
<g id="edge34" class="edge"><title>06&#45;&gt;13</title>
<path fill="none" stroke="black" stroke-width="0.5" d="M46.746,-216.807C62.5777,-199.584 107.12,-151.126 124.744,-131.953"/>
<polygon fill="black" stroke="black" stroke-width="0.5" points="125.525,-132.137 126.363,-130.191 124.494,-131.189 125.525,-132.137"/>
</g>
<!-- 06&#45;&gt;14 -->
<g id="edge35" class="edge"><title>06&#45;&gt;14</title>
<path fill="none" stroke="black" stroke-width="0.5" d="M46.2069,-216.148C61.7859,-195.433 108.373,-133.487 125.577,-110.612"/>
<polygon fill="black" stroke="black" stroke-width="0.5" points="126.314,-110.796 126.957,-108.777 125.195,-109.955 126.314,-110.796"/>
</g>
<!-- 07 -->
<g id="node8" class="node"><title>07</title>
<ellipse fill="none" stroke="black" stroke-width="0.5" cx="40.0536" cy="-201" rx="9" ry="9"/>
</g>
<!-- 07&#45;&gt;10 -->
<g id="edge36" class="edge"><title>07&#45;&gt;10</title>
<path fill="none" stroke="black" stroke-width="0.5" d="M46.2069,-194.148C61.7859,-173.433 108.373,-111.487 125.577,-88.6118"/>
<polygon fill="black" stroke="black" stroke-width="0.5" points="126.314,-88.7962 126.957,-86.777 125.195,-87.9547 126.314,-88.7962"/>
</g>
<!-- 07&#45;&gt;11 -->
<g id="edge37" class="edge"><title>07&#45;&gt;11</title>
<path fill="none" stroke="black" stroke-width="0.5" d="M48.8122,-198.186C65.3331,-192.195 103.963,-178.187 122.195,-171.575"/>
<polygon fill="black" stroke="black" stroke-width="0.5" points="122.673,-172.146 124.315,-170.806 122.196,-170.83 122.673,-172.146"/>
</g>
<!-- 07&#45;&gt;12 -->
<g id="edge38" class="edge"><title>07&#45;&gt;12</title>
<path fill="none" stroke="black" stroke-width="0.5" d="M48.1942,-196.684C64.5408,-186.804 104.667,-162.552 122.842,-151.568"/>
<polygon fill="black" stroke="black" stroke-width="0.5" points="123.597,-151.929 124.946,-150.296 122.872,-150.731 123.597,-151.929"/>
</g>
<!-- 07&#45;&gt;13 -->
<g id="edge39" class="edge"><title>07&#45;&gt;13</title>
<path fill="none" stroke="black" stroke-width="0.5" d="M47.5981,-195.462C63.8636,-181.699 106.092,-145.967 123.921,-130.882"/>
<polygon fill="black" stroke="black" stroke-width="0.5" points="124.494,-131.314 125.568,-129.487 123.589,-130.245 124.494,-131.314"/>
</g>
<!-- 07&#45;&gt;14 -->
<g id="edge40" class="edge"><title>07&#45;&gt;14</title>
<path fill="none" stroke="black" stroke-width="0.5" d="M46.746,-194.807C62.5777,-177.584 107.12,-129.126 124.744,-109.953"/>
<polygon fill="black" stroke="black" stroke-width="0.5" points="125.525,-110.137 126.363,-108.191 124.494,-109.189 125.525,-110.137"/>
</g>
<!-- 08 -->
<g id="node9" class="node"><title>08</title>
<ellipse fill="none" stroke="black" stroke-width="0.5" cx="40.0536" cy="-179" rx="9" ry="9"/>
</g>
<!-- 08&#45;&gt;10 -->
<g id="edge41" class="edge"><title>08&#45;&gt;10</title>
<path fill="none" stroke="black" stroke-width="0.5" d="M46.746,-172.807C62.5777,-155.584 107.12,-107.126 124.744,-87.9525"/>
<polygon fill="black" stroke="black" stroke-width="0.5" points="125.525,-88.1368 126.363,-86.1906 124.494,-87.1893 125.525,-88.1368"/>
</g>
<!-- 08&#45;&gt;11 -->
<g id="edge42" class="edge"><title>08&#45;&gt;11</title>
<path fill="none" stroke="black" stroke-width="0.5" d="M49.1292,-178.024C65.6817,-176.023 103.436,-171.459 121.733,-169.248"/>
<polygon fill="black" stroke="black" stroke-width="0.5" points="121.964,-169.925 123.865,-168.99 121.796,-168.535 121.964,-169.925"/>
</g>
<!-- 08&#45;&gt;12 -->
<g id="edge43" class="edge"><title>08&#45;&gt;12</title>
<path fill="none" stroke="black" stroke-width="0.5" d="M48.8122,-176.186C65.3331,-170.195 103.963,-156.187 122.195,-149.575"/>
<polygon fill="black" stroke="black" stroke-width="0.5" points="122.673,-150.146 124.315,-148.806 122.196,-148.83 122.673,-150.146"/>
</g>
<!-- 08&#45;&gt;13 -->
<g id="edge44" class="edge"><title>08&#45;&gt;13</title>
<path fill="none" stroke="black" stroke-width="0.5" d="M48.1942,-174.684C64.5408,-164.804 104.667,-140.552 122.842,-129.568"/>
<polygon fill="black" stroke="black" stroke-width="0.5" points="123.597,-129.929 124.946,-128.296 122.872,-128.731 123.597,-129.929"/>
</g>
<!-- 08&#45;&gt;14 -->
<g id="edge45" class="edge"><title>08&#45;&gt;14</title>
<path fill="none" stroke="black" stroke-width="0.5" d="M47.5981,-173.462C63.8636,-159.699 106.092,-123.967 123.921,-108.882"/>
<polygon fill="black" stroke="black" stroke-width="0.5" points="124.494,-109.314 125.568,-107.487 123.589,-108.245 124.494,-109.314"/>
</g>
<!-- 09 -->
<g id="node10" class="node"><title>09</title>
<ellipse fill="none" stroke="black" stroke-width="0.5" cx="40.0536" cy="-157" rx="9" ry="9"/>
</g>
<!-- 09&#45;&gt;10 -->
<g id="edge46" class="edge"><title>09&#45;&gt;10</title>
<path fill="none" stroke="black" stroke-width="0.5" d="M47.5981,-151.462C63.8636,-137.699 106.092,-101.967 123.921,-86.8815"/>
<polygon fill="black" stroke="black" stroke-width="0.5" points="124.494,-87.3138 125.568,-85.4875 123.589,-86.245 124.494,-87.3138"/>
</g>
<!-- 09&#45;&gt;11 -->
<g id="edge47" class="edge"><title>09&#45;&gt;11</title>
<path fill="none" stroke="black" stroke-width="0.5" d="M49.1292,-157.976C65.6817,-159.977 103.436,-164.541 121.733,-166.752"/>
<polygon fill="black" stroke="black" stroke-width="0.5" points="121.796,-167.465 123.865,-167.01 121.964,-166.075 121.796,-167.465"/>
</g>
<!-- 09&#45;&gt;12 -->
<g id="edge48" class="edge"><title>09&#45;&gt;12</title>
<path fill="none" stroke="black" stroke-width="0.5" d="M49.1292,-156.024C65.6817,-154.023 103.436,-149.459 121.733,-147.248"/>
<polygon fill="black" stroke="black" stroke-width="0.5" points="121.964,-147.925 123.865,-146.99 121.796,-146.535 121.964,-147.925"/>
</g>
<!-- 09&#45;&gt;13 -->
<g id="edge49" class="edge"><title>09&#45;&gt;13</title>
<path fill="none" stroke="black" stroke-width="0.5" d="M48.8122,-154.186C65.3331,-148.195 103.963,-134.187 122.195,-127.575"/>
<polygon fill="black" stroke="black" stroke-width="0.5" points="122.673,-128.146 124.315,-126.806 122.196,-126.83 122.673,-128.146"/>
</g>
<!-- 09&#45;&gt;14 -->
<g id="edge50" class="edge"><title>09&#45;&gt;14</title>
<path fill="none" stroke="black" stroke-width="0.5" d="M48.1942,-152.684C64.5408,-142.804 104.667,-118.552 122.842,-107.568"/>
<polygon fill="black" stroke="black" stroke-width="0.5" points="123.597,-107.929 124.946,-106.296 122.872,-106.731 123.597,-107.929"/>
</g>
<!-- 20 -->
<g id="node16" class="node"><title>20</title>
<ellipse fill="none" stroke="black" stroke-width="0.5" cx="227.054" cy="-102" rx="9" ry="9"/>
</g>
<!-- 10&#45;&gt;20 -->
<g id="edge51" class="edge"><title>10&#45;&gt;20</title>
<path fill="none" stroke="black" stroke-width="0.5" d="M141.897,-81.8757C158.6,-85.8698 197.655,-95.2089 216.087,-99.6166"/>
<polygon fill="black" stroke="black" stroke-width="0.5" points="216.122,-100.345 218.23,-100.129 216.447,-98.983 216.122,-100.345"/>
</g>
<!-- 21 -->
<g id="node17" class="node"><title>21</title>
<ellipse fill="none" stroke="black" stroke-width="0.5" cx="227.054" cy="-80" rx="9" ry="9"/>
</g>
<!-- 10&#45;&gt;21 -->
<g id="edge52" class="edge"><title>10&#45;&gt;21</title>
<path fill="none" stroke="black" stroke-width="0.5" d="M142.218,-80C159.037,-80 197.507,-80 215.898,-80"/>
<polygon fill="black" stroke="black" stroke-width="0.5" points="216.039,-80.7001 218.039,-80 216.039,-79.3001 216.039,-80.7001"/>
</g>
<!-- 22 -->
<g id="node18" class="node"><title>22</title>
<ellipse fill="none" stroke="black" stroke-width="0.5" cx="227.054" cy="-168" rx="9" ry="9"/>
</g>
<!-- 10&#45;&gt;22 -->
<g id="edge53" class="edge"><title>10&#45;&gt;22</title>
<path fill="none" stroke="black" stroke-width="0.5" d="M140.09,-85.7739C156.2,-101.184 200.207,-143.278 218.215,-160.502"/>
<polygon fill="black" stroke="black" stroke-width="0.5" points="217.945,-161.213 219.874,-162.089 218.913,-160.201 217.945,-161.213"/>
</g>
<!-- 23 -->
<g id="node19" class="node"><title>23</title>
<ellipse fill="none" stroke="black" stroke-width="0.5" cx="227.054" cy="-146" rx="9" ry="9"/>
</g>
<!-- 10&#45;&gt;23 -->
<g id="edge54" class="edge"><title>10&#45;&gt;23</title>
<path fill="none" stroke="black" stroke-width="0.5" d="M140.969,-84.9607C157.485,-96.8098 199.207,-126.74 217.375,-139.774"/>
<polygon fill="black" stroke="black" stroke-width="0.5" points="217.025,-140.385 219.058,-140.982 217.841,-139.247 217.025,-140.385"/>
</g>
<!-- 24 -->
<g id="node20" class="node"><title>24</title>
<ellipse fill="none" stroke="black" stroke-width="0.5" cx="227.054" cy="-124" rx="9" ry="9"/>
</g>
<!-- 10&#45;&gt;24 -->
<g id="edge55" class="edge"><title>10&#45;&gt;24</title>
<path fill="none" stroke="black" stroke-width="0.5" d="M141.582,-83.6007C158.243,-91.5687 198.203,-110.68 216.551,-119.455"/>
<polygon fill="black" stroke="black" stroke-width="0.5" points="216.572,-120.241 218.678,-120.473 217.176,-118.978 216.572,-120.241"/>
</g>
<!-- 11&#45;&gt;20 -->
<g id="edge56" class="edge"><title>11&#45;&gt;20</title>
<path fill="none" stroke="black" stroke-width="0.5" d="M140.969,-163.039C157.485,-151.19 199.207,-121.26 217.375,-108.226"/>
<polygon fill="black" stroke="black" stroke-width="0.5" points="217.841,-108.753 219.058,-107.018 217.025,-107.615 217.841,-108.753"/>
</g>
<!-- 11&#45;&gt;21 -->
<g id="edge57" class="edge"><title>11&#45;&gt;21</title>
<path fill="none" stroke="black" stroke-width="0.5" d="M140.09,-162.226C156.2,-146.816 200.207,-104.722 218.215,-87.4981"/>
<polygon fill="black" stroke="black" stroke-width="0.5" points="218.913,-87.7989 219.874,-85.9106 217.945,-86.7872 218.913,-87.7989"/>
</g>
<!-- 11&#45;&gt;22 -->
<g id="edge58" class="edge"><title>11&#45;&gt;22</title>
<path fill="none" stroke="black" stroke-width="0.5" d="M142.218,-168C159.037,-168 197.507,-168 215.898,-168"/>
<polygon fill="black" stroke="black" stroke-width="0.5" points="216.039,-168.7 218.039,-168 216.039,-167.3 216.039,-168.7"/>
</g>
<!-- 11&#45;&gt;23 -->
<g id="edge59" class="edge"><title>11&#45;&gt;23</title>
<path fill="none" stroke="black" stroke-width="0.5" d="M141.897,-166.124C158.6,-162.13 197.655,-152.791 216.087,-148.383"/>
<polygon fill="black" stroke="black" stroke-width="0.5" points="216.447,-149.017 218.23,-147.871 216.122,-147.655 216.447,-149.017"/>
</g>
<!-- 11&#45;&gt;24 -->
<g id="edge60" class="edge"><title>11&#45;&gt;24</title>
<path fill="none" stroke="black" stroke-width="0.5" d="M141.582,-164.399C158.243,-156.431 198.203,-137.32 216.551,-128.545"/>
<polygon fill="black" stroke="black" stroke-width="0.5" points="217.176,-129.022 218.678,-127.527 216.572,-127.759 217.176,-129.022"/>
</g>
<!-- 12&#45;&gt;20 -->
<g id="edge61" class="edge"><title>12&#45;&gt;20</title>
<path fill="none" stroke="black" stroke-width="0.5" d="M141.582,-142.399C158.243,-134.431 198.203,-115.32 216.551,-106.545"/>
<polygon fill="black" stroke="black" stroke-width="0.5" points="217.176,-107.022 218.678,-105.527 216.572,-105.759 217.176,-107.022"/>
</g>
<!-- 12&#45;&gt;21 -->
<g id="edge62" class="edge"><title>12&#45;&gt;21</title>
<path fill="none" stroke="black" stroke-width="0.5" d="M140.969,-141.039C157.485,-129.19 199.207,-99.2596 217.375,-86.2257"/>
<polygon fill="black" stroke="black" stroke-width="0.5" points="217.841,-86.7529 219.058,-85.0183 217.025,-85.6154 217.841,-86.7529"/>
</g>
<!-- 12&#45;&gt;22 -->
<g id="edge63" class="edge"><title>12&#45;&gt;22</title>
<path fill="none" stroke="black" stroke-width="0.5" d="M141.897,-147.876C158.6,-151.87 197.655,-161.209 216.087,-165.617"/>
<polygon fill="black" stroke="black" stroke-width="0.5" points="216.122,-166.345 218.23,-166.129 216.447,-164.983 216.122,-166.345"/>
</g>
<!-- 12&#45;&gt;23 -->
<g id="edge64" class="edge"><title>12&#45;&gt;23</title>
<path fill="none" stroke="black" stroke-width="0.5" d="M142.218,-146C159.037,-146 197.507,-146 215.898,-146"/>
<polygon fill="black" stroke="black" stroke-width="0.5" points="216.039,-146.7 218.039,-146 216.039,-145.3 216.039,-146.7"/>
</g>
<!-- 12&#45;&gt;24 -->
<g id="edge65" class="edge"><title>12&#45;&gt;24</title>
<path fill="none" stroke="black" stroke-width="0.5" d="M141.897,-144.124C158.6,-140.13 197.655,-130.791 216.087,-126.383"/>
<polygon fill="black" stroke="black" stroke-width="0.5" points="216.447,-127.017 218.23,-125.871 216.122,-125.655 216.447,-127.017"/>
</g>
<!-- 13&#45;&gt;20 -->
<g id="edge66" class="edge"><title>13&#45;&gt;20</title>
<path fill="none" stroke="black" stroke-width="0.5" d="M141.897,-122.124C158.6,-118.13 197.655,-108.791 216.087,-104.383"/>
<polygon fill="black" stroke="black" stroke-width="0.5" points="216.447,-105.017 218.23,-103.871 216.122,-103.655 216.447,-105.017"/>
</g>
<!-- 13&#45;&gt;21 -->
<g id="edge67" class="edge"><title>13&#45;&gt;21</title>
<path fill="none" stroke="black" stroke-width="0.5" d="M141.582,-120.399C158.243,-112.431 198.203,-93.32 216.551,-84.5449"/>
<polygon fill="black" stroke="black" stroke-width="0.5" points="217.176,-85.0219 218.678,-83.5275 216.572,-83.7589 217.176,-85.0219"/>
</g>
<!-- 13&#45;&gt;22 -->
<g id="edge68" class="edge"><title>13&#45;&gt;22</title>
<path fill="none" stroke="black" stroke-width="0.5" d="M141.582,-127.601C158.243,-135.569 198.203,-154.68 216.551,-163.455"/>
<polygon fill="black" stroke="black" stroke-width="0.5" points="216.572,-164.241 218.678,-164.473 217.176,-162.978 216.572,-164.241"/>
</g>
<!-- 13&#45;&gt;23 -->
<g id="edge69" class="edge"><title>13&#45;&gt;23</title>
<path fill="none" stroke="black" stroke-width="0.5" d="M141.897,-125.876C158.6,-129.87 197.655,-139.209 216.087,-143.617"/>
<polygon fill="black" stroke="black" stroke-width="0.5" points="216.122,-144.345 218.23,-144.129 216.447,-142.983 216.122,-144.345"/>
</g>
<!-- 13&#45;&gt;24 -->
<g id="edge70" class="edge"><title>13&#45;&gt;24</title>
<path fill="none" stroke="black" stroke-width="0.5" d="M142.218,-124C159.037,-124 197.507,-124 215.898,-124"/>
<polygon fill="black" stroke="black" stroke-width="0.5" points="216.039,-124.7 218.039,-124 216.039,-123.3 216.039,-124.7"/>
</g>
<!-- 14&#45;&gt;20 -->
<g id="edge71" class="edge"><title>14&#45;&gt;20</title>
<path fill="none" stroke="black" stroke-width="0.5" d="M142.218,-102C159.037,-102 197.507,-102 215.898,-102"/>
<polygon fill="black" stroke="black" stroke-width="0.5" points="216.039,-102.7 218.039,-102 216.039,-101.3 216.039,-102.7"/>
</g>
<!-- 14&#45;&gt;21 -->
<g id="edge72" class="edge"><title>14&#45;&gt;21</title>
<path fill="none" stroke="black" stroke-width="0.5" d="M141.897,-100.124C158.6,-96.1302 197.655,-86.7911 216.087,-82.3834"/>
<polygon fill="black" stroke="black" stroke-width="0.5" points="216.447,-83.017 218.23,-81.871 216.122,-81.6554 216.447,-83.017"/>
</g>
<!-- 14&#45;&gt;22 -->
<g id="edge73" class="edge"><title>14&#45;&gt;22</title>
<path fill="none" stroke="black" stroke-width="0.5" d="M140.969,-106.961C157.485,-118.81 199.207,-148.74 217.375,-161.774"/>
<polygon fill="black" stroke="black" stroke-width="0.5" points="217.025,-162.385 219.058,-162.982 217.841,-161.247 217.025,-162.385"/>
</g>
<!-- 14&#45;&gt;23 -->
<g id="edge74" class="edge"><title>14&#45;&gt;23</title>
<path fill="none" stroke="black" stroke-width="0.5" d="M141.582,-105.601C158.243,-113.569 198.203,-132.68 216.551,-141.455"/>
<polygon fill="black" stroke="black" stroke-width="0.5" points="216.572,-142.241 218.678,-142.473 217.176,-140.978 216.572,-142.241"/>
</g>
<!-- 14&#45;&gt;24 -->
<g id="edge75" class="edge"><title>14&#45;&gt;24</title>
<path fill="none" stroke="black" stroke-width="0.5" d="M141.897,-103.876C158.6,-107.87 197.655,-117.209 216.087,-121.617"/>
<polygon fill="black" stroke="black" stroke-width="0.5" points="216.122,-122.345 218.23,-122.129 216.447,-120.983 216.122,-122.345"/>
</g>
</g>
</svg>
