<?xml version="1.0" encoding="UTF-8" standalone="no"?>
<!DOCTYPE svg PUBLIC "-//W3C//DTD SVG 1.1//EN"
 "http://www.w3.org/Graphics/SVG/1.1/DTD/svg11.dtd">
<!-- Generated by graphviz version 2.38.0 (20140413.2041)
 -->
<!-- Title: %3 Pages: 1 -->
<svg width="275pt" height="275pt"
 viewBox="0.00 0.00 275.00 275.00" xmlns="http://www.w3.org/2000/svg" xmlns:xlink="http://www.w3.org/1999/xlink">
<g id="graph0" class="graph" transform="scale(1 1) rotate(0) translate(4 271)">
<title>%3</title>
<polygon fill="white" stroke="none" points="-4,4 -4,-271 271,-271 271,4 -4,4"/>
<g id="clust1" class="cluster"><title>cluster_0</title>
<polygon fill="none" stroke="white" points="20.1509,-8 20.1509,-259 105.792,-259 105.792,-8 20.1509,-8"/>
<text text-anchor="middle" x="62.9717" y="-246.9" font-family="Times,serif" font-size="9.00">input</text>
</g>
<g id="clust2" class="cluster"><title>cluster_1</title>
<polygon fill="none" stroke="white" points="156.17,-63 156.17,-204 254.406,-204 254.406,-63 156.17,-63"/>
<text text-anchor="middle" x="205.288" y="-191.9" font-family="Times,serif" font-size="9.00">output</text>
</g>
<!-- 00 -->
<g id="node1" class="node"><title>00</title>
<ellipse fill="none" stroke="black" stroke-width="0.5" cx="63.4057" cy="-135" rx="9" ry="9"/>
</g>
<!-- 10 -->
<g id="node11" class="node"><title>10</title>
<ellipse fill="none" stroke="black" stroke-width="0.5" cx="204.406" cy="-102" rx="9" ry="9"/>
</g>
<!-- 00&#45;&gt;10 -->
<g id="edge1" class="edge"><title>00&#45;&gt;10</title>
<path fill="none" stroke="black" stroke-width="0.5" d="M72.2772,-133.131C95.962,-127.508 166.568,-110.746 193.14,-104.437"/>
<polygon fill="black" stroke="black" stroke-width="0.5" points="193.49,-105.074 195.274,-103.93 193.167,-103.711 193.49,-105.074"/>
</g>
<!-- 11 -->
<g id="node12" class="node"><title>11</title>
<ellipse fill="none" stroke="black" stroke-width="0.5" cx="204.406" cy="-80" rx="9" ry="9"/>
</g>
<!-- 00&#45;&gt;11 -->
<g id="edge2" class="edge"><title>00&#45;&gt;11</title>
<path fill="none" stroke="black" stroke-width="0.5" d="M72.2772,-131.885C96.0737,-122.469 167.235,-94.3122 193.513,-83.9145"/>
<polygon fill="black" stroke="black" stroke-width="0.5" points="194.018,-84.4673 195.62,-83.0805 193.503,-83.1655 194.018,-84.4673"/>
</g>
<!-- 12 -->
<g id="node13" class="node"><title>12</title>
<ellipse fill="none" stroke="black" stroke-width="0.5" cx="204.406" cy="-168" rx="9" ry="9"/>
</g>
<!-- 00&#45;&gt;12 -->
<g id="edge3" class="edge"><title>00&#45;&gt;12</title>
<path fill="none" stroke="black" stroke-width="0.5" d="M72.2772,-136.869C95.962,-142.492 166.568,-159.254 193.14,-165.563"/>
<polygon fill="black" stroke="black" stroke-width="0.5" points="193.167,-166.289 195.274,-166.07 193.49,-164.926 193.167,-166.289"/>
</g>
<!-- 13 -->
<g id="node14" class="node"><title>13</title>
<ellipse fill="none" stroke="black" stroke-width="0.5" cx="204.406" cy="-146" rx="9" ry="9"/>
</g>
<!-- 00&#45;&gt;13 -->
<g id="edge4" class="edge"><title>00&#45;&gt;13</title>
<path fill="none" stroke="black" stroke-width="0.5" d="M72.6845,-135.655C96.7878,-137.563 166.873,-143.109 193.227,-145.195"/>
<polygon fill="black" stroke="black" stroke-width="0.5" points="193.295,-145.902 195.344,-145.362 193.406,-144.506 193.295,-145.902"/>
</g>
<!-- 14 -->
<g id="node15" class="node"><title>14</title>
<ellipse fill="none" stroke="black" stroke-width="0.5" cx="204.406" cy="-124" rx="9" ry="9"/>
</g>
<!-- 00&#45;&gt;14 -->
<g id="edge5" class="edge"><title>00&#45;&gt;14</title>
<path fill="none" stroke="black" stroke-width="0.5" d="M72.6845,-134.345C96.7878,-132.437 166.873,-126.891 193.227,-124.805"/>
<polygon fill="black" stroke="black" stroke-width="0.5" points="193.406,-125.494 195.344,-124.638 193.295,-124.098 193.406,-125.494"/>
</g>
<!-- 01 -->
<g id="node2" class="node"><title>01</title>
<ellipse fill="none" stroke="black" stroke-width="0.5" cx="63.4057" cy="-113" rx="9" ry="9"/>
</g>
<!-- 01&#45;&gt;10 -->
<g id="edge6" class="edge"><title>01&#45;&gt;10</title>
<path fill="none" stroke="black" stroke-width="0.5" d="M72.6845,-112.345C96.7878,-110.437 166.873,-104.891 193.227,-102.805"/>
<polygon fill="black" stroke="black" stroke-width="0.5" points="193.406,-103.494 195.344,-102.638 193.295,-102.098 193.406,-103.494"/>
</g>
<!-- 01&#45;&gt;11 -->
<g id="edge7" class="edge"><title>01&#45;&gt;11</title>
<path fill="none" stroke="black" stroke-width="0.5" d="M72.2772,-111.131C95.962,-105.508 166.568,-88.7457 193.14,-82.4373"/>
<polygon fill="black" stroke="black" stroke-width="0.5" points="193.49,-83.0736 195.274,-81.9305 193.167,-81.7115 193.49,-83.0736"/>
</g>
<!-- 01&#45;&gt;12 -->
<g id="edge8" class="edge"><title>01&#45;&gt;12</title>
<path fill="none" stroke="black" stroke-width="0.5" d="M72.2772,-116.115C96.0737,-125.531 167.235,-153.688 193.513,-164.086"/>
<polygon fill="black" stroke="black" stroke-width="0.5" points="193.503,-164.835 195.62,-164.92 194.018,-163.533 193.503,-164.835"/>
</g>
<!-- 01&#45;&gt;13 -->
<g id="edge9" class="edge"><title>01&#45;&gt;13</title>
<path fill="none" stroke="black" stroke-width="0.5" d="M72.2772,-114.869C95.962,-120.492 166.568,-137.254 193.14,-143.563"/>
<polygon fill="black" stroke="black" stroke-width="0.5" points="193.167,-144.289 195.274,-144.07 193.49,-142.926 193.167,-144.289"/>
</g>
<!-- 01&#45;&gt;14 -->
<g id="edge10" class="edge"><title>01&#45;&gt;14</title>
<path fill="none" stroke="black" stroke-width="0.5" d="M72.6845,-113.655C96.7878,-115.563 166.873,-121.109 193.227,-123.195"/>
<polygon fill="black" stroke="black" stroke-width="0.5" points="193.295,-123.902 195.344,-123.362 193.406,-122.506 193.295,-123.902"/>
</g>
<!-- 02 -->
<g id="node3" class="node"><title>02</title>
<ellipse fill="none" stroke="black" stroke-width="0.5" cx="63.4057" cy="-91" rx="9" ry="9"/>
</g>
<!-- 02&#45;&gt;10 -->
<g id="edge11" class="edge"><title>02&#45;&gt;10</title>
<path fill="none" stroke="black" stroke-width="0.5" d="M72.6845,-91.6552C96.7878,-93.5626 166.873,-99.109 193.227,-101.195"/>
<polygon fill="black" stroke="black" stroke-width="0.5" points="193.295,-101.902 195.344,-101.362 193.406,-100.506 193.295,-101.902"/>
</g>
<!-- 02&#45;&gt;11 -->
<g id="edge12" class="edge"><title>02&#45;&gt;11</title>
<path fill="none" stroke="black" stroke-width="0.5" d="M72.6845,-90.3448C96.7878,-88.4374 166.873,-82.891 193.227,-80.8055"/>
<polygon fill="black" stroke="black" stroke-width="0.5" points="193.406,-81.4936 195.344,-80.6379 193.295,-80.098 193.406,-81.4936"/>
</g>
<!-- 02&#45;&gt;12 -->
<g id="edge13" class="edge"><title>02&#45;&gt;12</title>
<path fill="none" stroke="black" stroke-width="0.5" d="M71.8789,-95.1399C95.5583,-108.257 168.869,-148.868 194.472,-163.051"/>
<polygon fill="black" stroke="black" stroke-width="0.5" points="194.142,-163.669 196.231,-164.026 194.821,-162.444 194.142,-163.669"/>
</g>
<!-- 02&#45;&gt;13 -->
<g id="edge14" class="edge"><title>02&#45;&gt;13</title>
<path fill="none" stroke="black" stroke-width="0.5" d="M72.2772,-94.1146C96.0737,-103.531 167.235,-131.688 193.513,-142.086"/>
<polygon fill="black" stroke="black" stroke-width="0.5" points="193.503,-142.835 195.62,-142.92 194.018,-141.533 193.503,-142.835"/>
</g>
<!-- 02&#45;&gt;14 -->
<g id="edge15" class="edge"><title>02&#45;&gt;14</title>
<path fill="none" stroke="black" stroke-width="0.5" d="M72.2772,-92.8688C95.962,-98.4918 166.568,-115.254 193.14,-121.563"/>
<polygon fill="black" stroke="black" stroke-width="0.5" points="193.167,-122.289 195.274,-122.07 193.49,-120.926 193.167,-122.289"/>
</g>
<!-- 03 -->
<g id="node4" class="node"><title>03</title>
<ellipse fill="none" stroke="black" stroke-width="0.5" cx="63.4057" cy="-69" rx="9" ry="9"/>
</g>
<!-- 03&#45;&gt;10 -->
<g id="edge16" class="edge"><title>03&#45;&gt;10</title>
<path fill="none" stroke="black" stroke-width="0.5" d="M72.2772,-70.8688C95.962,-76.4918 166.568,-93.2543 193.14,-99.5627"/>
<polygon fill="black" stroke="black" stroke-width="0.5" points="193.167,-100.289 195.274,-100.07 193.49,-98.9264 193.167,-100.289"/>
</g>
<!-- 03&#45;&gt;11 -->
<g id="edge17" class="edge"><title>03&#45;&gt;11</title>
<path fill="none" stroke="black" stroke-width="0.5" d="M72.6845,-69.6552C96.7878,-71.5626 166.873,-77.109 193.227,-79.1945"/>
<polygon fill="black" stroke="black" stroke-width="0.5" points="193.295,-79.902 195.344,-79.3621 193.406,-78.5064 193.295,-79.902"/>
</g>
<!-- 03&#45;&gt;12 -->
<g id="edge18" class="edge"><title>03&#45;&gt;12</title>
<path fill="none" stroke="black" stroke-width="0.5" d="M71.1099,-73.775C93.9882,-90.0696 168.984,-143.484 194.678,-161.784"/>
<polygon fill="black" stroke="black" stroke-width="0.5" points="194.406,-162.45 196.441,-163.04 195.218,-161.309 194.406,-162.45"/>
</g>
<!-- 03&#45;&gt;13 -->
<g id="edge19" class="edge"><title>03&#45;&gt;13</title>
<path fill="none" stroke="black" stroke-width="0.5" d="M71.8789,-73.1399C95.5583,-86.2572 168.869,-126.868 194.472,-141.051"/>
<polygon fill="black" stroke="black" stroke-width="0.5" points="194.142,-141.669 196.231,-142.026 194.821,-140.444 194.142,-141.669"/>
</g>
<!-- 03&#45;&gt;14 -->
<g id="edge20" class="edge"><title>03&#45;&gt;14</title>
<path fill="none" stroke="black" stroke-width="0.5" d="M72.2772,-72.1146C96.0737,-81.5305 167.235,-109.688 193.513,-120.086"/>
<polygon fill="black" stroke="black" stroke-width="0.5" points="193.503,-120.835 195.62,-120.92 194.018,-119.533 193.503,-120.835"/>
</g>
<!-- 04 -->
<g id="node5" class="node"><title>04</title>
<ellipse fill="none" stroke="black" stroke-width="0.5" cx="63.4057" cy="-47" rx="9" ry="9"/>
</g>
<!-- 04&#45;&gt;10 -->
<g id="edge21" class="edge"><title>04&#45;&gt;10</title>
<path fill="none" stroke="black" stroke-width="0.5" d="M72.2772,-50.1146C96.0737,-59.5305 167.235,-87.6878 193.513,-98.0855"/>
<polygon fill="black" stroke="black" stroke-width="0.5" points="193.503,-98.8345 195.62,-98.9195 194.018,-97.5327 193.503,-98.8345"/>
</g>
<!-- 04&#45;&gt;11 -->
<g id="edge22" class="edge"><title>04&#45;&gt;11</title>
<path fill="none" stroke="black" stroke-width="0.5" d="M72.2772,-48.8688C95.962,-54.4918 166.568,-71.2543 193.14,-77.5627"/>
<polygon fill="black" stroke="black" stroke-width="0.5" points="193.167,-78.2885 195.274,-78.0695 193.49,-76.9264 193.167,-78.2885"/>
</g>
<!-- 04&#45;&gt;12 -->
<g id="edge23" class="edge"><title>04&#45;&gt;12</title>
<path fill="none" stroke="black" stroke-width="0.5" d="M70.7394,-52.5135C93.3528,-72.1986 170.103,-139.01 195.31,-160.953"/>
<polygon fill="black" stroke="black" stroke-width="0.5" points="195.067,-161.669 197.035,-162.454 195.986,-160.613 195.067,-161.669"/>
</g>
<!-- 04&#45;&gt;13 -->
<g id="edge24" class="edge"><title>04&#45;&gt;13</title>
<path fill="none" stroke="black" stroke-width="0.5" d="M71.1099,-51.775C93.9882,-68.0696 168.984,-121.484 194.678,-139.784"/>
<polygon fill="black" stroke="black" stroke-width="0.5" points="194.406,-140.45 196.441,-141.04 195.218,-139.309 194.406,-140.45"/>
</g>
<!-- 04&#45;&gt;14 -->
<g id="edge25" class="edge"><title>04&#45;&gt;14</title>
<path fill="none" stroke="black" stroke-width="0.5" d="M71.8789,-51.1399C95.5583,-64.2572 168.869,-104.868 194.472,-119.051"/>
<polygon fill="black" stroke="black" stroke-width="0.5" points="194.142,-119.669 196.231,-120.026 194.821,-118.444 194.142,-119.669"/>
</g>
<!-- 05 -->
<g id="node6" class="node"><title>05</title>
<ellipse fill="none" stroke="black" stroke-width="0.5" cx="63.4057" cy="-25" rx="9" ry="9"/>
</g>
<!-- 05&#45;&gt;10 -->
<g id="edge26" class="edge"><title>05&#45;&gt;10</title>
<path fill="none" stroke="black" stroke-width="0.5" d="M71.8789,-29.1399C95.5583,-42.2572 168.869,-82.8682 194.472,-97.0509"/>
<polygon fill="black" stroke="black" stroke-width="0.5" points="194.142,-97.6688 196.231,-98.0256 194.821,-96.4441 194.142,-97.6688"/>
</g>
<!-- 05&#45;&gt;11 -->
<g id="edge27" class="edge"><title>05&#45;&gt;11</title>
<path fill="none" stroke="black" stroke-width="0.5" d="M72.2772,-28.1146C96.0737,-37.5305 167.235,-65.6878 193.513,-76.0855"/>
<polygon fill="black" stroke="black" stroke-width="0.5" points="193.503,-76.8345 195.62,-76.9195 194.018,-75.5327 193.503,-76.8345"/>
</g>
<!-- 05&#45;&gt;12 -->
<g id="edge28" class="edge"><title>05&#45;&gt;12</title>
<path fill="none" stroke="black" stroke-width="0.5" d="M70.3783,-31.1445C92.7065,-54.1153 171.25,-134.919 195.928,-160.307"/>
<polygon fill="black" stroke="black" stroke-width="0.5" points="195.714,-161.091 197.61,-162.038 196.718,-160.115 195.714,-161.091"/>
</g>
<!-- 05&#45;&gt;13 -->
<g id="edge29" class="edge"><title>05&#45;&gt;13</title>
<path fill="none" stroke="black" stroke-width="0.5" d="M70.7394,-30.5135C93.3528,-50.1986 170.103,-117.01 195.31,-138.953"/>
<polygon fill="black" stroke="black" stroke-width="0.5" points="195.067,-139.669 197.035,-140.454 195.986,-138.613 195.067,-139.669"/>
</g>
<!-- 05&#45;&gt;14 -->
<g id="edge30" class="edge"><title>05&#45;&gt;14</title>
<path fill="none" stroke="black" stroke-width="0.5" d="M71.1099,-29.775C93.9882,-46.0696 168.984,-99.4841 194.678,-117.784"/>
<polygon fill="black" stroke="black" stroke-width="0.5" points="194.406,-118.45 196.441,-119.04 195.218,-117.309 194.406,-118.45"/>
</g>
<!-- 06 -->
<g id="node7" class="node"><title>06</title>
<ellipse fill="none" stroke="black" stroke-width="0.5" cx="63.4057" cy="-223" rx="9" ry="9"/>
</g>
<!-- 06&#45;&gt;10 -->
<g id="edge31" class="edge"><title>06&#45;&gt;10</title>
<path fill="none" stroke="black" stroke-width="0.5" d="M70.7394,-217.486C93.3528,-197.801 170.103,-130.99 195.31,-109.047"/>
<polygon fill="black" stroke="black" stroke-width="0.5" points="195.986,-109.387 197.035,-107.546 195.067,-108.331 195.986,-109.387"/>
</g>
<!-- 06&#45;&gt;11 -->
<g id="edge32" class="edge"><title>06&#45;&gt;11</title>
<path fill="none" stroke="black" stroke-width="0.5" d="M70.3783,-216.855C92.7065,-193.885 171.25,-113.081 195.928,-87.693"/>
<polygon fill="black" stroke="black" stroke-width="0.5" points="196.718,-87.8845 197.61,-85.9625 195.714,-86.9087 196.718,-87.8845"/>
</g>
<!-- 06&#45;&gt;12 -->
<g id="edge33" class="edge"><title>06&#45;&gt;12</title>
<path fill="none" stroke="black" stroke-width="0.5" d="M72.2772,-219.885C96.0737,-210.469 167.235,-182.312 193.513,-171.914"/>
<polygon fill="black" stroke="black" stroke-width="0.5" points="194.018,-172.467 195.62,-171.08 193.503,-171.165 194.018,-172.467"/>
</g>
<!-- 06&#45;&gt;13 -->
<g id="edge34" class="edge"><title>06&#45;&gt;13</title>
<path fill="none" stroke="black" stroke-width="0.5" d="M71.8789,-218.86C95.5583,-205.743 168.869,-165.132 194.472,-150.949"/>
<polygon fill="black" stroke="black" stroke-width="0.5" points="194.821,-151.556 196.231,-149.974 194.142,-150.331 194.821,-151.556"/>
</g>
<!-- 06&#45;&gt;14 -->
<g id="edge35" class="edge"><title>06&#45;&gt;14</title>
<path fill="none" stroke="black" stroke-width="0.5" d="M71.1099,-218.225C93.9882,-201.93 168.984,-148.516 194.678,-130.216"/>
<polygon fill="black" stroke="black" stroke-width="0.5" points="195.218,-130.691 196.441,-128.96 194.406,-129.55 195.218,-130.691"/>
</g>
<!-- 07 -->
<g id="node8" class="node"><title>07</title>
<ellipse fill="none" stroke="black" stroke-width="0.5" cx="63.4057" cy="-201" rx="9" ry="9"/>
</g>
<!-- 07&#45;&gt;10 -->
<g id="edge36" class="edge"><title>07&#45;&gt;10</title>
<path fill="none" stroke="black" stroke-width="0.5" d="M71.1099,-196.225C93.9882,-179.93 168.984,-126.516 194.678,-108.216"/>
<polygon fill="black" stroke="black" stroke-width="0.5" points="195.218,-108.691 196.441,-106.96 194.406,-107.55 195.218,-108.691"/>
</g>
<!-- 07&#45;&gt;11 -->
<g id="edge37" class="edge"><title>07&#45;&gt;11</title>
<path fill="none" stroke="black" stroke-width="0.5" d="M70.7394,-195.486C93.3528,-175.801 170.103,-108.99 195.31,-87.047"/>
<polygon fill="black" stroke="black" stroke-width="0.5" points="195.986,-87.3871 197.035,-85.5459 195.067,-86.3311 195.986,-87.3871"/>
</g>
<!-- 07&#45;&gt;12 -->
<g id="edge38" class="edge"><title>07&#45;&gt;12</title>
<path fill="none" stroke="black" stroke-width="0.5" d="M72.2772,-199.131C95.962,-193.508 166.568,-176.746 193.14,-170.437"/>
<polygon fill="black" stroke="black" stroke-width="0.5" points="193.49,-171.074 195.274,-169.93 193.167,-169.711 193.49,-171.074"/>
</g>
<!-- 07&#45;&gt;13 -->
<g id="edge39" class="edge"><title>07&#45;&gt;13</title>
<path fill="none" stroke="black" stroke-width="0.5" d="M72.2772,-197.885C96.0737,-188.469 167.235,-160.312 193.513,-149.914"/>
<polygon fill="black" stroke="black" stroke-width="0.5" points="194.018,-150.467 195.62,-149.08 193.503,-149.165 194.018,-150.467"/>
</g>
<!-- 07&#45;&gt;14 -->
<g id="edge40" class="edge"><title>07&#45;&gt;14</title>
<path fill="none" stroke="black" stroke-width="0.5" d="M71.8789,-196.86C95.5583,-183.743 168.869,-143.132 194.472,-128.949"/>
<polygon fill="black" stroke="black" stroke-width="0.5" points="194.821,-129.556 196.231,-127.974 194.142,-128.331 194.821,-129.556"/>
</g>
<!-- 08 -->
<g id="node9" class="node"><title>08</title>
<ellipse fill="none" stroke="black" stroke-width="0.5" cx="63.4057" cy="-179" rx="9" ry="9"/>
</g>
<!-- 08&#45;&gt;10 -->
<g id="edge41" class="edge"><title>08&#45;&gt;10</title>
<path fill="none" stroke="black" stroke-width="0.5" d="M71.8789,-174.86C95.5583,-161.743 168.869,-121.132 194.472,-106.949"/>
<polygon fill="black" stroke="black" stroke-width="0.5" points="194.821,-107.556 196.231,-105.974 194.142,-106.331 194.821,-107.556"/>
</g>
<!-- 08&#45;&gt;11 -->
<g id="edge42" class="edge"><title>08&#45;&gt;11</title>
<path fill="none" stroke="black" stroke-width="0.5" d="M71.1099,-174.225C93.9882,-157.93 168.984,-104.516 194.678,-86.2162"/>
<polygon fill="black" stroke="black" stroke-width="0.5" points="195.218,-86.6907 196.441,-84.9603 194.406,-85.5504 195.218,-86.6907"/>
</g>
<!-- 08&#45;&gt;12 -->
<g id="edge43" class="edge"><title>08&#45;&gt;12</title>
<path fill="none" stroke="black" stroke-width="0.5" d="M72.6845,-178.345C96.7878,-176.437 166.873,-170.891 193.227,-168.805"/>
<polygon fill="black" stroke="black" stroke-width="0.5" points="193.406,-169.494 195.344,-168.638 193.295,-168.098 193.406,-169.494"/>
</g>
<!-- 08&#45;&gt;13 -->
<g id="edge44" class="edge"><title>08&#45;&gt;13</title>
<path fill="none" stroke="black" stroke-width="0.5" d="M72.2772,-177.131C95.962,-171.508 166.568,-154.746 193.14,-148.437"/>
<polygon fill="black" stroke="black" stroke-width="0.5" points="193.49,-149.074 195.274,-147.93 193.167,-147.711 193.49,-149.074"/>
</g>
<!-- 08&#45;&gt;14 -->
<g id="edge45" class="edge"><title>08&#45;&gt;14</title>
<path fill="none" stroke="black" stroke-width="0.5" d="M72.2772,-175.885C96.0737,-166.469 167.235,-138.312 193.513,-127.914"/>
<polygon fill="black" stroke="black" stroke-width="0.5" points="194.018,-128.467 195.62,-127.08 193.503,-127.165 194.018,-128.467"/>
</g>
<!-- 09 -->
<g id="node10" class="node"><title>09</title>
<ellipse fill="none" stroke="black" stroke-width="0.5" cx="63.4057" cy="-157" rx="9" ry="9"/>
</g>
<!-- 09&#45;&gt;10 -->
<g id="edge46" class="edge"><title>09&#45;&gt;10</title>
<path fill="none" stroke="black" stroke-width="0.5" d="M72.2772,-153.885C96.0737,-144.469 167.235,-116.312 193.513,-105.914"/>
<polygon fill="black" stroke="black" stroke-width="0.5" points="194.018,-106.467 195.62,-105.08 193.503,-105.165 194.018,-106.467"/>
</g>
<!-- 09&#45;&gt;11 -->
<g id="edge47" class="edge"><title>09&#45;&gt;11</title>
<path fill="none" stroke="black" stroke-width="0.5" d="M71.8789,-152.86C95.5583,-139.743 168.869,-99.1318 194.472,-84.9491"/>
<polygon fill="black" stroke="black" stroke-width="0.5" points="194.821,-85.5559 196.231,-83.9744 194.142,-84.3312 194.821,-85.5559"/>
</g>
<!-- 09&#45;&gt;12 -->
<g id="edge48" class="edge"><title>09&#45;&gt;12</title>
<path fill="none" stroke="black" stroke-width="0.5" d="M72.6845,-157.655C96.7878,-159.563 166.873,-165.109 193.227,-167.195"/>
<polygon fill="black" stroke="black" stroke-width="0.5" points="193.295,-167.902 195.344,-167.362 193.406,-166.506 193.295,-167.902"/>
</g>
<!-- 09&#45;&gt;13 -->
<g id="edge49" class="edge"><title>09&#45;&gt;13</title>
<path fill="none" stroke="black" stroke-width="0.5" d="M72.6845,-156.345C96.7878,-154.437 166.873,-148.891 193.227,-146.805"/>
<polygon fill="black" stroke="black" stroke-width="0.5" points="193.406,-147.494 195.344,-146.638 193.295,-146.098 193.406,-147.494"/>
</g>
<!-- 09&#45;&gt;14 -->
<g id="edge50" class="edge"><title>09&#45;&gt;14</title>
<path fill="none" stroke="black" stroke-width="0.5" d="M72.2772,-155.131C95.962,-149.508 166.568,-132.746 193.14,-126.437"/>
<polygon fill="black" stroke="black" stroke-width="0.5" points="193.49,-127.074 195.274,-125.93 193.167,-125.711 193.49,-127.074"/>
</g>
</g>
</svg>
