<?xml version="1.0" encoding="UTF-8" standalone="no"?>
<!DOCTYPE svg PUBLIC "-//W3C//DTD SVG 1.1//EN"
 "http://www.w3.org/Graphics/SVG/1.1/DTD/svg11.dtd">
<!-- Generated by graphviz version 2.38.0 (20140413.2041)
 -->
<!-- Title: %3 Pages: 1 -->
<svg width="275pt" height="275pt"
 viewBox="0.00 0.00 275.00 275.00" xmlns="http://www.w3.org/2000/svg" xmlns:xlink="http://www.w3.org/1999/xlink">
<g id="graph0" class="graph" transform="scale(1 1) rotate(0) translate(4 271)">
<title>%3</title>
<polygon fill="white" stroke="none" points="-4,4 -4,-271 271,-271 271,4 -4,4"/>
<g id="clust1" class="cluster"><title>cluster_0</title>
<polygon fill="none" stroke="white" points="13.0244,-8 13.0244,-259 68.378,-259 68.378,-8 13.0244,-8"/>
<text text-anchor="middle" x="40.7012" y="-246.9" font-family="Times,serif" font-size="9.00">input</text>
</g>
<g id="clust2" class="cluster"><title>cluster_1</title>
<polygon fill="none" stroke="white" points="100.939,-63 100.939,-204 166.061,-204 166.061,-63 100.939,-63"/>
<text text-anchor="middle" x="133.5" y="-191.9" font-family="Times,serif" font-size="9.00">hidden</text>
</g>
<g id="clust3" class="cluster"><title>cluster_2</title>
<polygon fill="none" stroke="white" points="198.622,-63 198.622,-204 253.976,-204 253.976,-63 198.622,-63"/>
<text text-anchor="middle" x="226.299" y="-191.9" font-family="Times,serif" font-size="9.00">cost</text>
</g>
<!-- 00 -->
<g id="node1" class="node"><title>00</title>
<ellipse fill="none" stroke="black" stroke-width="0.5" cx="40.9756" cy="-135" rx="9" ry="9"/>
</g>
<!-- 10 -->
<g id="node11" class="node"><title>10</title>
<ellipse fill="none" stroke="black" stroke-width="0.5" cx="133.976" cy="-102" rx="9" ry="9"/>
</g>
<!-- 00&#45;&gt;10 -->
<g id="edge1" class="edge"><title>00&#45;&gt;10</title>
<path fill="none" stroke="black" stroke-width="0.5" d="M51.8557,-131.417C70.1038,-124.8 108.733,-110.791 125.237,-104.806"/>
<polygon fill="black" stroke="black" stroke-width="0.5" points="49.7342,-132.186 51.3076,-130.658 50.6743,-131.845 51.6144,-131.505 51.6144,-131.505 51.6144,-131.505 50.6743,-131.845 51.9213,-132.351 49.7342,-132.186 49.7342,-132.186"/>
</g>
<!-- 11 -->
<g id="node12" class="node"><title>11</title>
<ellipse fill="none" stroke="black" stroke-width="0.5" cx="133.976" cy="-80" rx="9" ry="9"/>
</g>
<!-- 00&#45;&gt;11 -->
<g id="edge2" class="edge"><title>00&#45;&gt;11</title>
<path fill="none" stroke="black" stroke-width="0.5" d="M51.2245,-129.41C69.4288,-118.407 109.554,-94.156 125.868,-84.2957"/>
<polygon fill="black" stroke="black" stroke-width="0.5" points="49.1162,-130.684 50.3623,-128.879 49.9721,-130.167 50.8279,-129.65 50.8279,-129.65 50.8279,-129.65 49.9721,-130.167 51.2934,-130.42 49.1162,-130.684 49.1162,-130.684"/>
</g>
<!-- 12 -->
<g id="node13" class="node"><title>12</title>
<ellipse fill="none" stroke="black" stroke-width="0.5" cx="133.976" cy="-168" rx="9" ry="9"/>
</g>
<!-- 00&#45;&gt;12 -->
<g id="edge3" class="edge"><title>00&#45;&gt;12</title>
<path fill="none" stroke="black" stroke-width="0.5" d="M51.8557,-138.583C70.1038,-145.2 108.733,-159.209 125.237,-165.194"/>
<polygon fill="black" stroke="black" stroke-width="0.5" points="49.7342,-137.814 51.9213,-137.649 50.6743,-138.155 51.6144,-138.495 51.6144,-138.495 51.6144,-138.495 50.6743,-138.155 51.3076,-139.342 49.7342,-137.814 49.7342,-137.814"/>
</g>
<!-- 13 -->
<g id="node14" class="node"><title>13</title>
<ellipse fill="none" stroke="black" stroke-width="0.5" cx="133.976" cy="-146" rx="9" ry="9"/>
</g>
<!-- 00&#45;&gt;13 -->
<g id="edge4" class="edge"><title>00&#45;&gt;13</title>
<path fill="none" stroke="black" stroke-width="0.5" d="M52.1722,-136.233C70.3812,-138.434 108.139,-142.998 124.787,-145.01"/>
<polygon fill="black" stroke="black" stroke-width="0.5" points="50.0513,-135.976 52.1448,-135.323 51.044,-136.096 52.0368,-136.216 52.0368,-136.216 52.0368,-136.216 51.044,-136.096 51.9288,-137.11 50.0513,-135.976 50.0513,-135.976"/>
</g>
<!-- 14 -->
<g id="node15" class="node"><title>14</title>
<ellipse fill="none" stroke="black" stroke-width="0.5" cx="133.976" cy="-124" rx="9" ry="9"/>
</g>
<!-- 00&#45;&gt;14 -->
<g id="edge5" class="edge"><title>00&#45;&gt;14</title>
<path fill="none" stroke="black" stroke-width="0.5" d="M52.1722,-133.767C70.3812,-131.566 108.139,-127.002 124.787,-124.99"/>
<polygon fill="black" stroke="black" stroke-width="0.5" points="50.0513,-134.024 51.9288,-132.89 51.044,-133.904 52.0368,-133.784 52.0368,-133.784 52.0368,-133.784 51.044,-133.904 52.1448,-134.677 50.0513,-134.024 50.0513,-134.024"/>
</g>
<!-- 01 -->
<g id="node2" class="node"><title>01</title>
<ellipse fill="none" stroke="black" stroke-width="0.5" cx="40.9756" cy="-113" rx="9" ry="9"/>
</g>
<!-- 01&#45;&gt;10 -->
<g id="edge6" class="edge"><title>01&#45;&gt;10</title>
<path fill="none" stroke="black" stroke-width="0.5" d="M52.1722,-111.767C70.3812,-109.566 108.139,-105.002 124.787,-102.99"/>
<polygon fill="black" stroke="black" stroke-width="0.5" points="50.0513,-112.024 51.9288,-110.89 51.044,-111.904 52.0368,-111.784 52.0368,-111.784 52.0368,-111.784 51.044,-111.904 52.1448,-112.677 50.0513,-112.024 50.0513,-112.024"/>
</g>
<!-- 01&#45;&gt;11 -->
<g id="edge7" class="edge"><title>01&#45;&gt;11</title>
<path fill="none" stroke="black" stroke-width="0.5" d="M51.8557,-109.417C70.1038,-102.8 108.733,-88.7912 125.237,-82.8064"/>
<polygon fill="black" stroke="black" stroke-width="0.5" points="49.7342,-110.186 51.3076,-108.658 50.6743,-109.845 51.6144,-109.505 51.6144,-109.505 51.6144,-109.505 50.6743,-109.845 51.9213,-110.351 49.7342,-110.186 49.7342,-110.186"/>
</g>
<!-- 01&#45;&gt;12 -->
<g id="edge8" class="edge"><title>01&#45;&gt;12</title>
<path fill="none" stroke="black" stroke-width="0.5" d="M51.2245,-118.59C69.4288,-129.593 109.554,-153.844 125.868,-163.704"/>
<polygon fill="black" stroke="black" stroke-width="0.5" points="49.1162,-117.316 51.2934,-117.58 49.9721,-117.833 50.8279,-118.35 50.8279,-118.35 50.8279,-118.35 49.9721,-117.833 50.3623,-119.121 49.1162,-117.316 49.1162,-117.316"/>
</g>
<!-- 01&#45;&gt;13 -->
<g id="edge9" class="edge"><title>01&#45;&gt;13</title>
<path fill="none" stroke="black" stroke-width="0.5" d="M51.8557,-116.583C70.1038,-123.2 108.733,-137.209 125.237,-143.194"/>
<polygon fill="black" stroke="black" stroke-width="0.5" points="49.7342,-115.814 51.9213,-115.649 50.6743,-116.155 51.6144,-116.495 51.6144,-116.495 51.6144,-116.495 50.6743,-116.155 51.3076,-117.342 49.7342,-115.814 49.7342,-115.814"/>
</g>
<!-- 01&#45;&gt;14 -->
<g id="edge10" class="edge"><title>01&#45;&gt;14</title>
<path fill="none" stroke="black" stroke-width="0.5" d="M52.1722,-114.233C70.3812,-116.434 108.139,-120.998 124.787,-123.01"/>
<polygon fill="black" stroke="black" stroke-width="0.5" points="50.0513,-113.976 52.1448,-113.323 51.044,-114.096 52.0368,-114.216 52.0368,-114.216 52.0368,-114.216 51.044,-114.096 51.9288,-115.11 50.0513,-113.976 50.0513,-113.976"/>
</g>
<!-- 02 -->
<g id="node3" class="node"><title>02</title>
<ellipse fill="none" stroke="black" stroke-width="0.5" cx="40.9756" cy="-91" rx="9" ry="9"/>
</g>
<!-- 02&#45;&gt;10 -->
<g id="edge11" class="edge"><title>02&#45;&gt;10</title>
<path fill="none" stroke="black" stroke-width="0.5" d="M52.1722,-92.2326C70.3812,-94.4336 108.139,-98.9978 124.787,-101.01"/>
<polygon fill="black" stroke="black" stroke-width="0.5" points="50.0513,-91.9762 52.1448,-91.3228 51.044,-92.0962 52.0368,-92.2163 52.0368,-92.2163 52.0368,-92.2163 51.044,-92.0962 51.9288,-93.1098 50.0513,-91.9762 50.0513,-91.9762"/>
</g>
<!-- 02&#45;&gt;11 -->
<g id="edge12" class="edge"><title>02&#45;&gt;11</title>
<path fill="none" stroke="black" stroke-width="0.5" d="M52.1722,-89.7674C70.3812,-87.5664 108.139,-83.0022 124.787,-80.9898"/>
<polygon fill="black" stroke="black" stroke-width="0.5" points="50.0513,-90.0238 51.9288,-88.8902 51.044,-89.9038 52.0368,-89.7837 52.0368,-89.7837 52.0368,-89.7837 51.044,-89.9038 52.1448,-90.6772 50.0513,-90.0238 50.0513,-90.0238"/>
</g>
<!-- 02&#45;&gt;12 -->
<g id="edge13" class="edge"><title>02&#45;&gt;12</title>
<path fill="none" stroke="black" stroke-width="0.5" d="M50.1735,-97.9367C68.0617,-113.073 110.288,-148.803 126.49,-162.513"/>
<polygon fill="black" stroke="black" stroke-width="0.5" points="48.5201,-96.5377 50.6283,-97.1425 49.2835,-97.1836 50.0469,-97.8296 50.0469,-97.8296 50.0469,-97.8296 49.2835,-97.1836 49.4655,-98.5166 48.5201,-96.5377 48.5201,-96.5377"/>
</g>
<!-- 02&#45;&gt;13 -->
<g id="edge14" class="edge"><title>02&#45;&gt;13</title>
<path fill="none" stroke="black" stroke-width="0.5" d="M51.2245,-96.59C69.4288,-107.593 109.554,-131.844 125.868,-141.704"/>
<polygon fill="black" stroke="black" stroke-width="0.5" points="49.1162,-95.3158 51.2934,-95.5801 49.9721,-95.833 50.8279,-96.3503 50.8279,-96.3503 50.8279,-96.3503 49.9721,-95.833 50.3623,-97.1206 49.1162,-95.3158 49.1162,-95.3158"/>
</g>
<!-- 02&#45;&gt;14 -->
<g id="edge15" class="edge"><title>02&#45;&gt;14</title>
<path fill="none" stroke="black" stroke-width="0.5" d="M51.8557,-94.5829C70.1038,-101.2 108.733,-115.209 125.237,-121.194"/>
<polygon fill="black" stroke="black" stroke-width="0.5" points="49.7342,-93.8136 51.9213,-93.6494 50.6743,-94.1545 51.6144,-94.4954 51.6144,-94.4954 51.6144,-94.4954 50.6743,-94.1545 51.3076,-95.3415 49.7342,-93.8136 49.7342,-93.8136"/>
</g>
<!-- 03 -->
<g id="node4" class="node"><title>03</title>
<ellipse fill="none" stroke="black" stroke-width="0.5" cx="40.9756" cy="-69" rx="9" ry="9"/>
</g>
<!-- 03&#45;&gt;10 -->
<g id="edge16" class="edge"><title>03&#45;&gt;10</title>
<path fill="none" stroke="black" stroke-width="0.5" d="M51.8557,-72.5829C70.1038,-79.2003 108.733,-93.2088 125.237,-99.1936"/>
<polygon fill="black" stroke="black" stroke-width="0.5" points="49.7342,-71.8136 51.9213,-71.6494 50.6743,-72.1545 51.6144,-72.4954 51.6144,-72.4954 51.6144,-72.4954 50.6743,-72.1545 51.3076,-73.3415 49.7342,-71.8136 49.7342,-71.8136"/>
</g>
<!-- 03&#45;&gt;11 -->
<g id="edge17" class="edge"><title>03&#45;&gt;11</title>
<path fill="none" stroke="black" stroke-width="0.5" d="M52.1722,-70.2326C70.3812,-72.4336 108.139,-76.9978 124.787,-79.0102"/>
<polygon fill="black" stroke="black" stroke-width="0.5" points="50.0513,-69.9762 52.1448,-69.3228 51.044,-70.0962 52.0368,-70.2163 52.0368,-70.2163 52.0368,-70.2163 51.044,-70.0962 51.9288,-71.1098 50.0513,-69.9762 50.0513,-69.9762"/>
</g>
<!-- 03&#45;&gt;12 -->
<g id="edge18" class="edge"><title>03&#45;&gt;12</title>
<path fill="none" stroke="black" stroke-width="0.5" d="M49.2879,-76.9552C66.914,-96.1308 111.456,-144.589 127.285,-161.809"/>
<polygon fill="black" stroke="black" stroke-width="0.5" points="47.6681,-75.1929 49.6842,-76.0563 48.3448,-75.9291 49.0216,-76.6654 49.0216,-76.6654 49.0216,-76.6654 48.3448,-75.9291 48.3589,-77.2744 47.6681,-75.1929 47.6681,-75.1929"/>
</g>
<!-- 03&#45;&gt;13 -->
<g id="edge19" class="edge"><title>03&#45;&gt;13</title>
<path fill="none" stroke="black" stroke-width="0.5" d="M50.1735,-75.9367C68.0617,-91.0728 110.288,-126.803 126.49,-140.513"/>
<polygon fill="black" stroke="black" stroke-width="0.5" points="48.5201,-74.5377 50.6283,-75.1425 49.2835,-75.1836 50.0469,-75.8296 50.0469,-75.8296 50.0469,-75.8296 49.2835,-75.1836 49.4655,-76.5166 48.5201,-74.5377 48.5201,-74.5377"/>
</g>
<!-- 03&#45;&gt;14 -->
<g id="edge20" class="edge"><title>03&#45;&gt;14</title>
<path fill="none" stroke="black" stroke-width="0.5" d="M51.2245,-74.59C69.4288,-85.5926 109.554,-109.844 125.868,-119.704"/>
<polygon fill="black" stroke="black" stroke-width="0.5" points="49.1162,-73.3158 51.2934,-73.5801 49.9721,-73.833 50.8279,-74.3503 50.8279,-74.3503 50.8279,-74.3503 49.9721,-73.833 50.3623,-75.1206 49.1162,-73.3158 49.1162,-73.3158"/>
</g>
<!-- 04 -->
<g id="node5" class="node"><title>04</title>
<ellipse fill="none" stroke="black" stroke-width="0.5" cx="40.9756" cy="-47" rx="9" ry="9"/>
</g>
<!-- 04&#45;&gt;10 -->
<g id="edge21" class="edge"><title>04&#45;&gt;10</title>
<path fill="none" stroke="black" stroke-width="0.5" d="M51.2245,-52.59C69.4288,-63.5926 109.554,-87.844 125.868,-97.7043"/>
<polygon fill="black" stroke="black" stroke-width="0.5" points="49.1162,-51.3158 51.2934,-51.5801 49.9721,-51.833 50.8279,-52.3503 50.8279,-52.3503 50.8279,-52.3503 49.9721,-51.833 50.3623,-53.1206 49.1162,-51.3158 49.1162,-51.3158"/>
</g>
<!-- 04&#45;&gt;11 -->
<g id="edge22" class="edge"><title>04&#45;&gt;11</title>
<path fill="none" stroke="black" stroke-width="0.5" d="M51.8557,-50.5829C70.1038,-57.2003 108.733,-71.2088 125.237,-77.1936"/>
<polygon fill="black" stroke="black" stroke-width="0.5" points="49.7342,-49.8136 51.9213,-49.6494 50.6743,-50.1545 51.6144,-50.4954 51.6144,-50.4954 51.6144,-50.4954 50.6743,-50.1545 51.3076,-51.3415 49.7342,-49.8136 49.7342,-49.8136"/>
</g>
<!-- 04&#45;&gt;12 -->
<g id="edge23" class="edge"><title>04&#45;&gt;12</title>
<path fill="none" stroke="black" stroke-width="0.5" d="M48.515,-55.6952C65.7897,-78.6649 112.375,-140.608 127.879,-161.223"/>
<polygon fill="black" stroke="black" stroke-width="0.5" points="47.1289,-53.8522 49.0503,-54.9096 47.73,-54.6514 48.331,-55.4506 48.331,-55.4506 48.331,-55.4506 47.73,-54.6514 47.6118,-55.9916 47.1289,-53.8522 47.1289,-53.8522"/>
</g>
<!-- 04&#45;&gt;13 -->
<g id="edge24" class="edge"><title>04&#45;&gt;13</title>
<path fill="none" stroke="black" stroke-width="0.5" d="M49.2879,-54.9552C66.914,-74.1308 111.456,-122.589 127.285,-139.809"/>
<polygon fill="black" stroke="black" stroke-width="0.5" points="47.6681,-53.1929 49.6842,-54.0563 48.3448,-53.9291 49.0216,-54.6654 49.0216,-54.6654 49.0216,-54.6654 48.3448,-53.9291 48.3589,-55.2744 47.6681,-53.1929 47.6681,-53.1929"/>
</g>
<!-- 04&#45;&gt;14 -->
<g id="edge25" class="edge"><title>04&#45;&gt;14</title>
<path fill="none" stroke="black" stroke-width="0.5" d="M50.1735,-53.9367C68.0617,-69.0728 110.288,-104.803 126.49,-118.513"/>
<polygon fill="black" stroke="black" stroke-width="0.5" points="48.5201,-52.5377 50.6283,-53.1425 49.2835,-53.1836 50.0469,-53.8296 50.0469,-53.8296 50.0469,-53.8296 49.2835,-53.1836 49.4655,-54.5166 48.5201,-52.5377 48.5201,-52.5377"/>
</g>
<!-- 05 -->
<g id="node6" class="node"><title>05</title>
<ellipse fill="none" stroke="black" stroke-width="0.5" cx="40.9756" cy="-25" rx="9" ry="9"/>
</g>
<!-- 05&#45;&gt;10 -->
<g id="edge26" class="edge"><title>05&#45;&gt;10</title>
<path fill="none" stroke="black" stroke-width="0.5" d="M50.1735,-31.9367C68.0617,-47.0728 110.288,-82.803 126.49,-96.5125"/>
<polygon fill="black" stroke="black" stroke-width="0.5" points="48.5201,-30.5377 50.6283,-31.1425 49.2835,-31.1836 50.0469,-31.8296 50.0469,-31.8296 50.0469,-31.8296 49.2835,-31.1836 49.4655,-32.5166 48.5201,-30.5377 48.5201,-30.5377"/>
</g>
<!-- 05&#45;&gt;11 -->
<g id="edge27" class="edge"><title>05&#45;&gt;11</title>
<path fill="none" stroke="black" stroke-width="0.5" d="M51.2245,-30.59C69.4288,-41.5926 109.554,-65.844 125.868,-75.7043"/>
<polygon fill="black" stroke="black" stroke-width="0.5" points="49.1162,-29.3158 51.2934,-29.5801 49.9721,-29.833 50.8279,-30.3503 50.8279,-30.3503 50.8279,-30.3503 49.9721,-29.833 50.3623,-31.1206 49.1162,-29.3158 49.1162,-29.3158"/>
</g>
<!-- 05&#45;&gt;12 -->
<g id="edge28" class="edge"><title>05&#45;&gt;12</title>
<path fill="none" stroke="black" stroke-width="0.5" d="M47.7649,-34.0974C64.5277,-60.4389 112.885,-136.429 128.238,-160.555"/>
<polygon fill="black" stroke="black" stroke-width="0.5" points="46.6134,-32.288 48.4465,-33.4921 47.1503,-33.1317 47.6872,-33.9753 47.6872,-33.9753 47.6872,-33.9753 47.1503,-33.1317 46.9279,-34.4585 46.6134,-32.288 46.6134,-32.288"/>
</g>
<!-- 05&#45;&gt;13 -->
<g id="edge29" class="edge"><title>05&#45;&gt;13</title>
<path fill="none" stroke="black" stroke-width="0.5" d="M48.515,-33.6952C65.7897,-56.6649 112.375,-118.608 127.879,-139.223"/>
<polygon fill="black" stroke="black" stroke-width="0.5" points="47.1289,-31.8522 49.0503,-32.9096 47.73,-32.6514 48.331,-33.4506 48.331,-33.4506 48.331,-33.4506 47.73,-32.6514 47.6118,-33.9916 47.1289,-31.8522 47.1289,-31.8522"/>
</g>
<!-- 05&#45;&gt;14 -->
<g id="edge30" class="edge"><title>05&#45;&gt;14</title>
<path fill="none" stroke="black" stroke-width="0.5" d="M49.2879,-32.9552C66.914,-52.1308 111.456,-100.589 127.285,-117.809"/>
<polygon fill="black" stroke="black" stroke-width="0.5" points="47.6681,-31.1929 49.6842,-32.0563 48.3448,-31.9291 49.0216,-32.6654 49.0216,-32.6654 49.0216,-32.6654 48.3448,-31.9291 48.3589,-33.2744 47.6681,-31.1929 47.6681,-31.1929"/>
</g>
<!-- 06 -->
<g id="node7" class="node"><title>06</title>
<ellipse fill="none" stroke="black" stroke-width="0.5" cx="40.9756" cy="-223" rx="9" ry="9"/>
</g>
<!-- 06&#45;&gt;10 -->
<g id="edge31" class="edge"><title>06&#45;&gt;10</title>
<path fill="none" stroke="black" stroke-width="0.5" d="M48.515,-214.305C65.7897,-191.335 112.375,-129.392 127.879,-108.777"/>
<polygon fill="black" stroke="black" stroke-width="0.5" points="47.1289,-216.148 47.6118,-214.008 47.73,-215.349 48.331,-214.549 48.331,-214.549 48.331,-214.549 47.73,-215.349 49.0503,-215.09 47.1289,-216.148 47.1289,-216.148"/>
</g>
<!-- 06&#45;&gt;11 -->
<g id="edge32" class="edge"><title>06&#45;&gt;11</title>
<path fill="none" stroke="black" stroke-width="0.5" d="M47.7649,-213.903C64.5277,-187.561 112.885,-111.571 128.238,-87.4448"/>
<polygon fill="black" stroke="black" stroke-width="0.5" points="46.6134,-215.712 46.9279,-213.541 47.1503,-214.868 47.6872,-214.025 47.6872,-214.025 47.6872,-214.025 47.1503,-214.868 48.4465,-214.508 46.6134,-215.712 46.6134,-215.712"/>
</g>
<!-- 06&#45;&gt;12 -->
<g id="edge33" class="edge"><title>06&#45;&gt;12</title>
<path fill="none" stroke="black" stroke-width="0.5" d="M51.2245,-217.41C69.4288,-206.407 109.554,-182.156 125.868,-172.296"/>
<polygon fill="black" stroke="black" stroke-width="0.5" points="49.1162,-218.684 50.3623,-216.879 49.9721,-218.167 50.8279,-217.65 50.8279,-217.65 50.8279,-217.65 49.9721,-218.167 51.2934,-218.42 49.1162,-218.684 49.1162,-218.684"/>
</g>
<!-- 06&#45;&gt;13 -->
<g id="edge34" class="edge"><title>06&#45;&gt;13</title>
<path fill="none" stroke="black" stroke-width="0.5" d="M50.1735,-216.063C68.0617,-200.927 110.288,-165.197 126.49,-151.487"/>
<polygon fill="black" stroke="black" stroke-width="0.5" points="48.5201,-217.462 49.4655,-215.483 49.2835,-216.816 50.0469,-216.17 50.0469,-216.17 50.0469,-216.17 49.2835,-216.816 50.6283,-216.857 48.5201,-217.462 48.5201,-217.462"/>
</g>
<!-- 06&#45;&gt;14 -->
<g id="edge35" class="edge"><title>06&#45;&gt;14</title>
<path fill="none" stroke="black" stroke-width="0.5" d="M49.2879,-215.045C66.914,-195.869 111.456,-147.411 127.285,-130.191"/>
<polygon fill="black" stroke="black" stroke-width="0.5" points="47.6681,-216.807 48.3589,-214.726 48.3448,-216.071 49.0216,-215.335 49.0216,-215.335 49.0216,-215.335 48.3448,-216.071 49.6842,-215.944 47.6681,-216.807 47.6681,-216.807"/>
</g>
<!-- 07 -->
<g id="node8" class="node"><title>07</title>
<ellipse fill="none" stroke="black" stroke-width="0.5" cx="40.9756" cy="-201" rx="9" ry="9"/>
</g>
<!-- 07&#45;&gt;10 -->
<g id="edge36" class="edge"><title>07&#45;&gt;10</title>
<path fill="none" stroke="black" stroke-width="0.5" d="M49.2879,-193.045C66.914,-173.869 111.456,-125.411 127.285,-108.191"/>
<polygon fill="black" stroke="black" stroke-width="0.5" points="47.6681,-194.807 48.3589,-192.726 48.3448,-194.071 49.0216,-193.335 49.0216,-193.335 49.0216,-193.335 48.3448,-194.071 49.6842,-193.944 47.6681,-194.807 47.6681,-194.807"/>
</g>
<!-- 07&#45;&gt;11 -->
<g id="edge37" class="edge"><title>07&#45;&gt;11</title>
<path fill="none" stroke="black" stroke-width="0.5" d="M48.515,-192.305C65.7897,-169.335 112.375,-107.392 127.879,-86.777"/>
<polygon fill="black" stroke="black" stroke-width="0.5" points="47.1289,-194.148 47.6118,-192.008 47.73,-193.349 48.331,-192.549 48.331,-192.549 48.331,-192.549 47.73,-193.349 49.0503,-193.09 47.1289,-194.148 47.1289,-194.148"/>
</g>
<!-- 07&#45;&gt;12 -->
<g id="edge38" class="edge"><title>07&#45;&gt;12</title>
<path fill="none" stroke="black" stroke-width="0.5" d="M51.8557,-197.417C70.1038,-190.8 108.733,-176.791 125.237,-170.806"/>
<polygon fill="black" stroke="black" stroke-width="0.5" points="49.7342,-198.186 51.3076,-196.658 50.6743,-197.845 51.6144,-197.505 51.6144,-197.505 51.6144,-197.505 50.6743,-197.845 51.9213,-198.351 49.7342,-198.186 49.7342,-198.186"/>
</g>
<!-- 07&#45;&gt;13 -->
<g id="edge39" class="edge"><title>07&#45;&gt;13</title>
<path fill="none" stroke="black" stroke-width="0.5" d="M51.2245,-195.41C69.4288,-184.407 109.554,-160.156 125.868,-150.296"/>
<polygon fill="black" stroke="black" stroke-width="0.5" points="49.1162,-196.684 50.3623,-194.879 49.9721,-196.167 50.8279,-195.65 50.8279,-195.65 50.8279,-195.65 49.9721,-196.167 51.2934,-196.42 49.1162,-196.684 49.1162,-196.684"/>
</g>
<!-- 07&#45;&gt;14 -->
<g id="edge40" class="edge"><title>07&#45;&gt;14</title>
<path fill="none" stroke="black" stroke-width="0.5" d="M50.1735,-194.063C68.0617,-178.927 110.288,-143.197 126.49,-129.487"/>
<polygon fill="black" stroke="black" stroke-width="0.5" points="48.5201,-195.462 49.4655,-193.483 49.2835,-194.816 50.0469,-194.17 50.0469,-194.17 50.0469,-194.17 49.2835,-194.816 50.6283,-194.857 48.5201,-195.462 48.5201,-195.462"/>
</g>
<!-- 08 -->
<g id="node9" class="node"><title>08</title>
<ellipse fill="none" stroke="black" stroke-width="0.5" cx="40.9756" cy="-179" rx="9" ry="9"/>
</g>
<!-- 08&#45;&gt;10 -->
<g id="edge41" class="edge"><title>08&#45;&gt;10</title>
<path fill="none" stroke="black" stroke-width="0.5" d="M50.1735,-172.063C68.0617,-156.927 110.288,-121.197 126.49,-107.487"/>
<polygon fill="black" stroke="black" stroke-width="0.5" points="48.5201,-173.462 49.4655,-171.483 49.2835,-172.816 50.0469,-172.17 50.0469,-172.17 50.0469,-172.17 49.2835,-172.816 50.6283,-172.857 48.5201,-173.462 48.5201,-173.462"/>
</g>
<!-- 08&#45;&gt;11 -->
<g id="edge42" class="edge"><title>08&#45;&gt;11</title>
<path fill="none" stroke="black" stroke-width="0.5" d="M49.2879,-171.045C66.914,-151.869 111.456,-103.411 127.285,-86.1906"/>
<polygon fill="black" stroke="black" stroke-width="0.5" points="47.6681,-172.807 48.3589,-170.726 48.3448,-172.071 49.0216,-171.335 49.0216,-171.335 49.0216,-171.335 48.3448,-172.071 49.6842,-171.944 47.6681,-172.807 47.6681,-172.807"/>
</g>
<!-- 08&#45;&gt;12 -->
<g id="edge43" class="edge"><title>08&#45;&gt;12</title>
<path fill="none" stroke="black" stroke-width="0.5" d="M52.1722,-177.767C70.3812,-175.566 108.139,-171.002 124.787,-168.99"/>
<polygon fill="black" stroke="black" stroke-width="0.5" points="50.0513,-178.024 51.9288,-176.89 51.044,-177.904 52.0368,-177.784 52.0368,-177.784 52.0368,-177.784 51.044,-177.904 52.1448,-178.677 50.0513,-178.024 50.0513,-178.024"/>
</g>
<!-- 08&#45;&gt;13 -->
<g id="edge44" class="edge"><title>08&#45;&gt;13</title>
<path fill="none" stroke="black" stroke-width="0.5" d="M51.8557,-175.417C70.1038,-168.8 108.733,-154.791 125.237,-148.806"/>
<polygon fill="black" stroke="black" stroke-width="0.5" points="49.7342,-176.186 51.3076,-174.658 50.6743,-175.845 51.6144,-175.505 51.6144,-175.505 51.6144,-175.505 50.6743,-175.845 51.9213,-176.351 49.7342,-176.186 49.7342,-176.186"/>
</g>
<!-- 08&#45;&gt;14 -->
<g id="edge45" class="edge"><title>08&#45;&gt;14</title>
<path fill="none" stroke="black" stroke-width="0.5" d="M51.2245,-173.41C69.4288,-162.407 109.554,-138.156 125.868,-128.296"/>
<polygon fill="black" stroke="black" stroke-width="0.5" points="49.1162,-174.684 50.3623,-172.879 49.9721,-174.167 50.8279,-173.65 50.8279,-173.65 50.8279,-173.65 49.9721,-174.167 51.2934,-174.42 49.1162,-174.684 49.1162,-174.684"/>
</g>
<!-- 09 -->
<g id="node10" class="node"><title>09</title>
<ellipse fill="none" stroke="black" stroke-width="0.5" cx="40.9756" cy="-157" rx="9" ry="9"/>
</g>
<!-- 09&#45;&gt;10 -->
<g id="edge46" class="edge"><title>09&#45;&gt;10</title>
<path fill="none" stroke="black" stroke-width="0.5" d="M51.2245,-151.41C69.4288,-140.407 109.554,-116.156 125.868,-106.296"/>
<polygon fill="black" stroke="black" stroke-width="0.5" points="49.1162,-152.684 50.3623,-150.879 49.9721,-152.167 50.8279,-151.65 50.8279,-151.65 50.8279,-151.65 49.9721,-152.167 51.2934,-152.42 49.1162,-152.684 49.1162,-152.684"/>
</g>
<!-- 09&#45;&gt;11 -->
<g id="edge47" class="edge"><title>09&#45;&gt;11</title>
<path fill="none" stroke="black" stroke-width="0.5" d="M50.1735,-150.063C68.0617,-134.927 110.288,-99.197 126.49,-85.4875"/>
<polygon fill="black" stroke="black" stroke-width="0.5" points="48.5201,-151.462 49.4655,-149.483 49.2835,-150.816 50.0469,-150.17 50.0469,-150.17 50.0469,-150.17 49.2835,-150.816 50.6283,-150.857 48.5201,-151.462 48.5201,-151.462"/>
</g>
<!-- 09&#45;&gt;12 -->
<g id="edge48" class="edge"><title>09&#45;&gt;12</title>
<path fill="none" stroke="black" stroke-width="0.5" d="M52.1722,-158.233C70.3812,-160.434 108.139,-164.998 124.787,-167.01"/>
<polygon fill="black" stroke="black" stroke-width="0.5" points="50.0513,-157.976 52.1448,-157.323 51.044,-158.096 52.0368,-158.216 52.0368,-158.216 52.0368,-158.216 51.044,-158.096 51.9288,-159.11 50.0513,-157.976 50.0513,-157.976"/>
</g>
<!-- 09&#45;&gt;13 -->
<g id="edge49" class="edge"><title>09&#45;&gt;13</title>
<path fill="none" stroke="black" stroke-width="0.5" d="M52.1722,-155.767C70.3812,-153.566 108.139,-149.002 124.787,-146.99"/>
<polygon fill="black" stroke="black" stroke-width="0.5" points="50.0513,-156.024 51.9288,-154.89 51.044,-155.904 52.0368,-155.784 52.0368,-155.784 52.0368,-155.784 51.044,-155.904 52.1448,-156.677 50.0513,-156.024 50.0513,-156.024"/>
</g>
<!-- 09&#45;&gt;14 -->
<g id="edge50" class="edge"><title>09&#45;&gt;14</title>
<path fill="none" stroke="black" stroke-width="0.5" d="M51.8557,-153.417C70.1038,-146.8 108.733,-132.791 125.237,-126.806"/>
<polygon fill="black" stroke="black" stroke-width="0.5" points="49.7342,-154.186 51.3076,-152.658 50.6743,-153.845 51.6144,-153.505 51.6144,-153.505 51.6144,-153.505 50.6743,-153.845 51.9213,-154.351 49.7342,-154.186 49.7342,-154.186"/>
</g>
<!-- 20 -->
<g id="node16" class="node"><title>20</title>
<ellipse fill="none" stroke="black" stroke-width="0.5" cx="225.976" cy="-102" rx="9" ry="9"/>
</g>
<!-- 10&#45;&gt;20 -->
<g id="edge51" class="edge"><title>10&#45;&gt;20</title>
<path fill="none" stroke="black" stroke-width="0.5" d="M145.4,-102C163.561,-102 200.623,-102 216.949,-102"/>
<polygon fill="black" stroke="black" stroke-width="0.5" points="143.281,-102 145.281,-101.1 144.281,-102 145.281,-102 145.281,-102 145.281,-102 144.281,-102 145.281,-102.9 143.281,-102 143.281,-102"/>
</g>
<!-- 21 -->
<g id="node17" class="node"><title>21</title>
<ellipse fill="none" stroke="black" stroke-width="0.5" cx="225.976" cy="-80" rx="9" ry="9"/>
</g>
<!-- 10&#45;&gt;21 -->
<g id="edge52" class="edge"><title>10&#45;&gt;21</title>
<path fill="none" stroke="black" stroke-width="0.5" d="M145.071,-99.5322C163.179,-95.1058 200.808,-85.9075 217.135,-81.9166"/>
<polygon fill="black" stroke="black" stroke-width="0.5" points="142.963,-100.048 144.692,-98.6984 143.934,-99.8102 144.905,-99.5727 144.905,-99.5727 144.905,-99.5727 143.934,-99.8102 145.119,-100.447 142.963,-100.048 142.963,-100.048"/>
</g>
<!-- 22 -->
<g id="node18" class="node"><title>22</title>
<ellipse fill="none" stroke="black" stroke-width="0.5" cx="225.976" cy="-168" rx="9" ry="9"/>
</g>
<!-- 10&#45;&gt;22 -->
<g id="edge53" class="edge"><title>10&#45;&gt;22</title>
<path fill="none" stroke="black" stroke-width="0.5" d="M143.379,-108.163C161.078,-121.142 201.895,-151.074 218.132,-162.982"/>
<polygon fill="black" stroke="black" stroke-width="0.5" points="141.74,-106.961 143.885,-107.418 142.547,-107.552 143.353,-108.143 143.353,-108.143 143.353,-108.143 142.547,-107.552 142.821,-108.869 141.74,-106.961 141.74,-106.961"/>
</g>
<!-- 23 -->
<g id="node19" class="node"><title>23</title>
<ellipse fill="none" stroke="black" stroke-width="0.5" cx="225.976" cy="-146" rx="9" ry="9"/>
</g>
<!-- 10&#45;&gt;23 -->
<g id="edge54" class="edge"><title>10&#45;&gt;23</title>
<path fill="none" stroke="black" stroke-width="0.5" d="M144.416,-106.616C162.299,-115.358 200.793,-134.177 217.254,-142.225"/>
<polygon fill="black" stroke="black" stroke-width="0.5" points="142.341,-105.601 144.533,-105.671 143.239,-106.04 144.137,-106.479 144.137,-106.479 144.137,-106.479 143.239,-106.04 143.742,-107.288 142.341,-105.601 142.341,-105.601"/>
</g>
<!-- 24 -->
<g id="node20" class="node"><title>24</title>
<ellipse fill="none" stroke="black" stroke-width="0.5" cx="225.976" cy="-124" rx="9" ry="9"/>
</g>
<!-- 10&#45;&gt;24 -->
<g id="edge55" class="edge"><title>10&#45;&gt;24</title>
<path fill="none" stroke="black" stroke-width="0.5" d="M145.071,-104.468C163.179,-108.894 200.808,-118.092 217.135,-122.083"/>
<polygon fill="black" stroke="black" stroke-width="0.5" points="142.963,-103.952 145.119,-103.553 143.934,-104.19 144.905,-104.427 144.905,-104.427 144.905,-104.427 143.934,-104.19 144.692,-105.302 142.963,-103.952 142.963,-103.952"/>
</g>
<!-- 11&#45;&gt;20 -->
<g id="edge56" class="edge"><title>11&#45;&gt;20</title>
<path fill="none" stroke="black" stroke-width="0.5" d="M145.071,-82.4678C163.179,-86.8942 200.808,-96.0925 217.135,-100.083"/>
<polygon fill="black" stroke="black" stroke-width="0.5" points="142.963,-81.9524 145.119,-81.5531 143.934,-82.1898 144.905,-82.4273 144.905,-82.4273 144.905,-82.4273 143.934,-82.1898 144.692,-83.3016 142.963,-81.9524 142.963,-81.9524"/>
</g>
<!-- 11&#45;&gt;21 -->
<g id="edge57" class="edge"><title>11&#45;&gt;21</title>
<path fill="none" stroke="black" stroke-width="0.5" d="M145.4,-80C163.561,-80 200.623,-80 216.949,-80"/>
<polygon fill="black" stroke="black" stroke-width="0.5" points="143.281,-80 145.281,-79.1001 144.281,-80 145.281,-80.0001 145.281,-80.0001 145.281,-80.0001 144.281,-80 145.281,-80.9001 143.281,-80 143.281,-80"/>
</g>
<!-- 11&#45;&gt;22 -->
<g id="edge58" class="edge"><title>11&#45;&gt;22</title>
<path fill="none" stroke="black" stroke-width="0.5" d="M142.489,-87.3468C159.955,-104.424 203.011,-146.523 218.931,-162.089"/>
<polygon fill="black" stroke="black" stroke-width="0.5" points="140.881,-85.7739 142.94,-86.5287 141.596,-86.4731 142.311,-87.1722 142.311,-87.1722 142.311,-87.1722 141.596,-86.4731 141.682,-87.8157 140.881,-85.7739 140.881,-85.7739"/>
</g>
<!-- 11&#45;&gt;23 -->
<g id="edge59" class="edge"><title>11&#45;&gt;23</title>
<path fill="none" stroke="black" stroke-width="0.5" d="M143.379,-86.1627C161.078,-99.1419 201.895,-129.074 218.132,-140.982"/>
<polygon fill="black" stroke="black" stroke-width="0.5" points="141.74,-84.9607 143.885,-85.4177 142.547,-85.5521 143.353,-86.1435 143.353,-86.1435 143.353,-86.1435 142.547,-85.5521 142.821,-86.8693 141.74,-84.9607 141.74,-84.9607"/>
</g>
<!-- 11&#45;&gt;24 -->
<g id="edge60" class="edge"><title>11&#45;&gt;24</title>
<path fill="none" stroke="black" stroke-width="0.5" d="M144.416,-84.6155C162.299,-93.3583 200.793,-112.177 217.254,-120.225"/>
<polygon fill="black" stroke="black" stroke-width="0.5" points="142.341,-83.6007 144.533,-83.6706 143.239,-84.0399 144.137,-84.4792 144.137,-84.4792 144.137,-84.4792 143.239,-84.0399 143.742,-85.2877 142.341,-83.6007 142.341,-83.6007"/>
</g>
<!-- 12&#45;&gt;20 -->
<g id="edge61" class="edge"><title>12&#45;&gt;20</title>
<path fill="none" stroke="black" stroke-width="0.5" d="M143.379,-161.837C161.078,-148.858 201.895,-118.926 218.132,-107.018"/>
<polygon fill="black" stroke="black" stroke-width="0.5" points="141.74,-163.039 142.821,-161.131 142.547,-162.448 143.353,-161.857 143.353,-161.857 143.353,-161.857 142.547,-162.448 143.885,-162.582 141.74,-163.039 141.74,-163.039"/>
</g>
<!-- 12&#45;&gt;21 -->
<g id="edge62" class="edge"><title>12&#45;&gt;21</title>
<path fill="none" stroke="black" stroke-width="0.5" d="M142.489,-160.653C159.955,-143.576 203.011,-101.477 218.931,-85.9106"/>
<polygon fill="black" stroke="black" stroke-width="0.5" points="140.881,-162.226 141.682,-160.184 141.596,-161.527 142.311,-160.828 142.311,-160.828 142.311,-160.828 141.596,-161.527 142.94,-161.471 140.881,-162.226 140.881,-162.226"/>
</g>
<!-- 12&#45;&gt;22 -->
<g id="edge63" class="edge"><title>12&#45;&gt;22</title>
<path fill="none" stroke="black" stroke-width="0.5" d="M145.4,-168C163.561,-168 200.623,-168 216.949,-168"/>
<polygon fill="black" stroke="black" stroke-width="0.5" points="143.281,-168 145.281,-167.1 144.281,-168 145.281,-168 145.281,-168 145.281,-168 144.281,-168 145.281,-168.9 143.281,-168 143.281,-168"/>
</g>
<!-- 12&#45;&gt;23 -->
<g id="edge64" class="edge"><title>12&#45;&gt;23</title>
<path fill="none" stroke="black" stroke-width="0.5" d="M145.071,-165.532C163.179,-161.106 200.808,-151.908 217.135,-147.917"/>
<polygon fill="black" stroke="black" stroke-width="0.5" points="142.963,-166.048 144.692,-164.698 143.934,-165.81 144.905,-165.573 144.905,-165.573 144.905,-165.573 143.934,-165.81 145.119,-166.447 142.963,-166.048 142.963,-166.048"/>
</g>
<!-- 12&#45;&gt;24 -->
<g id="edge65" class="edge"><title>12&#45;&gt;24</title>
<path fill="none" stroke="black" stroke-width="0.5" d="M144.416,-163.384C162.299,-154.642 200.793,-135.823 217.254,-127.775"/>
<polygon fill="black" stroke="black" stroke-width="0.5" points="142.341,-164.399 143.742,-162.712 143.239,-163.96 144.137,-163.521 144.137,-163.521 144.137,-163.521 143.239,-163.96 144.533,-164.329 142.341,-164.399 142.341,-164.399"/>
</g>
<!-- 13&#45;&gt;20 -->
<g id="edge66" class="edge"><title>13&#45;&gt;20</title>
<path fill="none" stroke="black" stroke-width="0.5" d="M144.416,-141.384C162.299,-132.642 200.793,-113.823 217.254,-105.775"/>
<polygon fill="black" stroke="black" stroke-width="0.5" points="142.341,-142.399 143.742,-140.712 143.239,-141.96 144.137,-141.521 144.137,-141.521 144.137,-141.521 143.239,-141.96 144.533,-142.329 142.341,-142.399 142.341,-142.399"/>
</g>
<!-- 13&#45;&gt;21 -->
<g id="edge67" class="edge"><title>13&#45;&gt;21</title>
<path fill="none" stroke="black" stroke-width="0.5" d="M143.379,-139.837C161.078,-126.858 201.895,-96.9257 218.132,-85.0183"/>
<polygon fill="black" stroke="black" stroke-width="0.5" points="141.74,-141.039 142.821,-139.131 142.547,-140.448 143.353,-139.857 143.353,-139.857 143.353,-139.857 142.547,-140.448 143.885,-140.582 141.74,-141.039 141.74,-141.039"/>
</g>
<!-- 13&#45;&gt;22 -->
<g id="edge68" class="edge"><title>13&#45;&gt;22</title>
<path fill="none" stroke="black" stroke-width="0.5" d="M145.071,-148.468C163.179,-152.894 200.808,-162.092 217.135,-166.083"/>
<polygon fill="black" stroke="black" stroke-width="0.5" points="142.963,-147.952 145.119,-147.553 143.934,-148.19 144.905,-148.427 144.905,-148.427 144.905,-148.427 143.934,-148.19 144.692,-149.302 142.963,-147.952 142.963,-147.952"/>
</g>
<!-- 13&#45;&gt;23 -->
<g id="edge69" class="edge"><title>13&#45;&gt;23</title>
<path fill="none" stroke="black" stroke-width="0.5" d="M145.4,-146C163.561,-146 200.623,-146 216.949,-146"/>
<polygon fill="black" stroke="black" stroke-width="0.5" points="143.281,-146 145.281,-145.1 144.281,-146 145.281,-146 145.281,-146 145.281,-146 144.281,-146 145.281,-146.9 143.281,-146 143.281,-146"/>
</g>
<!-- 13&#45;&gt;24 -->
<g id="edge70" class="edge"><title>13&#45;&gt;24</title>
<path fill="none" stroke="black" stroke-width="0.5" d="M145.071,-143.532C163.179,-139.106 200.808,-129.908 217.135,-125.917"/>
<polygon fill="black" stroke="black" stroke-width="0.5" points="142.963,-144.048 144.692,-142.698 143.934,-143.81 144.905,-143.573 144.905,-143.573 144.905,-143.573 143.934,-143.81 145.119,-144.447 142.963,-144.048 142.963,-144.048"/>
</g>
<!-- 14&#45;&gt;20 -->
<g id="edge71" class="edge"><title>14&#45;&gt;20</title>
<path fill="none" stroke="black" stroke-width="0.5" d="M145.071,-121.532C163.179,-117.106 200.808,-107.908 217.135,-103.917"/>
<polygon fill="black" stroke="black" stroke-width="0.5" points="142.963,-122.048 144.692,-120.698 143.934,-121.81 144.905,-121.573 144.905,-121.573 144.905,-121.573 143.934,-121.81 145.119,-122.447 142.963,-122.048 142.963,-122.048"/>
</g>
<!-- 14&#45;&gt;21 -->
<g id="edge72" class="edge"><title>14&#45;&gt;21</title>
<path fill="none" stroke="black" stroke-width="0.5" d="M144.416,-119.384C162.299,-110.642 200.793,-91.8226 217.254,-83.7752"/>
<polygon fill="black" stroke="black" stroke-width="0.5" points="142.341,-120.399 143.742,-118.712 143.239,-119.96 144.137,-119.521 144.137,-119.521 144.137,-119.521 143.239,-119.96 144.533,-120.329 142.341,-120.399 142.341,-120.399"/>
</g>
<!-- 14&#45;&gt;22 -->
<g id="edge73" class="edge"><title>14&#45;&gt;22</title>
<path fill="none" stroke="black" stroke-width="0.5" d="M144.416,-128.616C162.299,-137.358 200.793,-156.177 217.254,-164.225"/>
<polygon fill="black" stroke="black" stroke-width="0.5" points="142.341,-127.601 144.533,-127.671 143.239,-128.04 144.137,-128.479 144.137,-128.479 144.137,-128.479 143.239,-128.04 143.742,-129.288 142.341,-127.601 142.341,-127.601"/>
</g>
<!-- 14&#45;&gt;23 -->
<g id="edge74" class="edge"><title>14&#45;&gt;23</title>
<path fill="none" stroke="black" stroke-width="0.5" d="M145.071,-126.468C163.179,-130.894 200.808,-140.092 217.135,-144.083"/>
<polygon fill="black" stroke="black" stroke-width="0.5" points="142.963,-125.952 145.119,-125.553 143.934,-126.19 144.905,-126.427 144.905,-126.427 144.905,-126.427 143.934,-126.19 144.692,-127.302 142.963,-125.952 142.963,-125.952"/>
</g>
<!-- 14&#45;&gt;24 -->
<g id="edge75" class="edge"><title>14&#45;&gt;24</title>
<path fill="none" stroke="black" stroke-width="0.5" d="M145.4,-124C163.561,-124 200.623,-124 216.949,-124"/>
<polygon fill="black" stroke="black" stroke-width="0.5" points="143.281,-124 145.281,-123.1 144.281,-124 145.281,-124 145.281,-124 145.281,-124 144.281,-124 145.281,-124.9 143.281,-124 143.281,-124"/>
</g>
</g>
</svg>
